#N canvas 806 299 243 413 10;
#X obj 11 233 osc~ 440;
#X obj 68 257 *~ 0.5;
#X msg 118 184 0;
#X obj 67 75 ead~ 100 600;
#X obj 69 307 *~;
#X obj 181 91 sqrt~;
#X obj 69 232 phasor~ 880;
#X obj 12 258 *~ 0.8;
#X obj 180 289 *~ 1;
#X obj 70 352 *~ 0.5;
#X obj 68 183 +~ 120;
#X obj 66 39 t b;
#X obj 66 15 inlet;
#X obj 69 387 outlet~;
#X obj 101 108 loadbang;
#X obj 101 143 int \$1;
#X connect 0 0 7 0;
#X connect 1 0 4 0;
#X connect 2 0 0 1;
#X connect 2 0 6 1;
#X connect 3 0 5 0;
#X connect 3 0 10 0;
#X connect 4 0 9 0;
#X connect 5 0 8 0;
#X connect 6 0 1 0;
#X connect 7 0 4 0;
#X connect 8 0 4 1;
#X connect 9 0 13 0;
#X connect 10 0 0 0;
#X connect 10 0 6 0;
#X connect 11 0 3 0;
#X connect 11 0 2 0;
#X connect 12 0 11 0;
#X connect 14 0 15 0;
#X connect 15 0 10 1;
