#N canvas 806 134 243 559 10;
#X obj 9 326 osc~ 440;
#X obj 66 350 *~ 0.5;
#X msg 116 277 0;
#X obj 67 400 *~;
#X obj 179 184 sqrt~;
#X obj 67 325 phasor~ 880;
#X obj 10 351 *~ 0.8;
#X obj 178 382 *~ 1;
#X obj 68 445 *~ 0.5;
#X obj 66 276 +~ 120;
#X obj 66 39 t b;
#X obj 66 15 inlet;
#X obj 67 480 outlet~;
#X obj 99 201 loadbang;
#X obj 99 236 int \$1;
#X obj 66 117 vline~;
#X msg 66 69 1 20 0 \, 0 100 20;
#X connect 0 0 6 0;
#X connect 1 0 3 0;
#X connect 2 0 0 1;
#X connect 2 0 5 1;
#X connect 3 0 8 0;
#X connect 4 0 7 0;
#X connect 5 0 1 0;
#X connect 6 0 3 0;
#X connect 7 0 3 1;
#X connect 8 0 12 0;
#X connect 9 0 0 0;
#X connect 9 0 5 0;
#X connect 10 0 2 0;
#X connect 10 0 16 0;
#X connect 11 0 10 0;
#X connect 13 0 14 0;
#X connect 14 0 9 1;
#X connect 15 0 9 0;
#X connect 15 0 4 0;
#X connect 16 0 15 0;
