#N canvas 586 94 345 505 10;
#X obj 80 -125 inlet;
#N canvas 198 217 583 300 ArrowSound 1;
#X obj 208 46 bng 15 250 50 0 empty empty empty 17 7 0 10 -262144 -1
-1;
#X obj 142 158 vline~;
#X obj 143 193 *~;
#X obj 64 151 noise~;
#X obj 108 238 *~;
#X msg 142 120 1 20 \, 0 20 20;
#X obj 321 201 vcf~ 600 23;
#X obj 357 88 *~ 80000;
#X obj 319 262 bp~ 1000 7;
#X msg 342 154 7;
#X obj 333 29 noise~;
#X obj 299 233 *~ 3;
#X obj 207 212 vline~;
#X obj 208 247 *~;
#X obj 258 289 *~;
#X obj 356 65 lop~ 0.1;
#X obj 357 112 clip~ 0 1000;
#X msg 209 179 1 200 \, 0 100 200;
#X obj 65 199 lop~ 600;
#X obj 378 155 +~ 500;
#X obj 208 11 inlet;
#X obj 168 352 outlet~;
#X connect 0 0 5 0;
#X connect 0 0 9 0;
#X connect 0 0 17 0;
#X connect 1 0 2 0;
#X connect 1 0 2 1;
#X connect 2 0 4 1;
#X connect 3 0 18 0;
#X connect 4 0 21 0;
#X connect 5 0 1 0;
#X connect 6 0 11 0;
#X connect 7 0 16 0;
#X connect 8 0 14 1;
#X connect 9 0 6 2;
#X connect 10 0 6 0;
#X connect 10 0 15 0;
#X connect 11 0 8 0;
#X connect 12 0 13 0;
#X connect 12 0 13 1;
#X connect 13 0 14 0;
#X connect 14 0 21 0;
#X connect 15 0 7 0;
#X connect 16 0 19 0;
#X connect 17 0 12 0;
#X connect 18 0 4 0;
#X connect 19 0 6 1;
#X connect 20 0 0 0;
#X restore 80 -52 pd ArrowSound;
#X obj 153 98 dac~;
#X obj 206 -109 inlet;
#X obj 109 66 *~;
#X obj 178 47 *~;
#X obj 164 2 -;
#X floatatom 30 -22 5 0 0 0 - - -;
#X floatatom 230 -39 5 0 0 0 - - -;
#X obj 135 -81 del 1;
#X obj 58 -78 del 2;
#X connect 0 0 6 0;
#X connect 0 0 9 0;
#X connect 0 0 10 0;
#X connect 1 0 4 0;
#X connect 1 0 5 0;
#X connect 3 0 5 1;
#X connect 3 0 6 1;
#X connect 3 0 8 0;
#X connect 4 0 2 0;
#X connect 5 0 2 1;
#X connect 6 0 4 1;
#X connect 7 0 6 0;
#X connect 9 0 6 0;
#X connect 10 0 1 0;
