#N canvas 535 175 819 628 10;
#X obj 21 16 r bass-radio-\$1-s;
#X floatatom 22 252 5 0 0 0 - - -;
#X obj 165 98 r 32-tick-val;
#X obj 253 62 loadbang;
#X obj 253 99 int \$1;
#X obj 202 152 ==;
#X obj 202 183 spigot;
#X obj 202 218 t b;
#X msg 202 345 color 13;
#X obj 22 362 s bass-radio-\$1-r;
#X msg 310 281 7;
#X floatatom 310 33 5 0 0 0 - - -;
#X msg 22 308 color 31;
#X msg 310 238 set \$1;
#X floatatom 253 133 5 0 0 0 - - -;
#X obj 310 331 s play-bass;
#X floatatom 108 115 5 0 0 0 - - -;
#X obj 81 235 del 100;
#X obj 202 264 del 100;
#X floatatom 120 186 5 0 0 0 - - -;
#X obj 120 210 + 100;
#X floatatom 241 233 5 0 0 0 - - -;
#X obj 241 205 r 32-tick-val;
#X obj 120 158 r 32-tick-val;
#X obj 400 33 loadbang;
#X obj 400 64 int \$1;
#X obj 326 98 tabwrite bass;
#X connect 0 0 1 0;
#X connect 0 0 11 0;
#X connect 1 0 12 0;
#X connect 2 0 5 0;
#X connect 2 0 16 0;
#X connect 3 0 4 0;
#X connect 4 0 5 1;
#X connect 4 0 14 0;
#X connect 5 0 6 0;
#X connect 5 0 6 1;
#X connect 6 0 7 0;
#X connect 7 0 17 0;
#X connect 7 0 18 0;
#X connect 8 0 9 0;
#X connect 10 0 15 0;
#X connect 11 0 13 0;
#X connect 11 0 26 0;
#X connect 12 0 9 0;
#X connect 13 0 10 0;
#X connect 17 0 1 0;
#X connect 18 0 8 0;
#X connect 18 0 10 0;
#X connect 19 0 20 0;
#X connect 20 0 17 1;
#X connect 21 0 18 1;
#X connect 22 0 21 0;
#X connect 23 0 19 0;
#X connect 24 0 25 0;
#X connect 25 0 26 1;
