#N canvas 160 165 724 643 10;
#X obj 329 -8 inlet;
#X obj 329 24 bng 15 250 50 0 empty empty empty 17 7 0 10 -262144 -1
-1;
#X obj 25 69 bng 15 250 50 0 empty empty empty 17 7 0 10 -262144 -1
-1;
#X obj 198 69 bng 15 250 50 0 empty empty empty 17 7 0 10 -262144 -1
-1;
#X obj 376 69 bng 15 250 50 0 empty empty empty 17 7 0 10 -262144 -1
-1;
#X obj 551 69 bng 15 250 50 0 empty empty empty 17 7 0 10 -262144 -1
-1;
#X obj 25 107 beat-checkbox 1 \$1;
#X obj 198 107 beat-checkbox 2 \$1;
#X obj 376 106 beat-checkbox 3 \$1;
#X obj 551 106 beat-checkbox 4 \$1;
#X obj 25 376 beat-checkbox 5 \$1;
#X obj 198 376 beat-checkbox 6 \$1;
#X obj 376 375 beat-checkbox 7 \$1;
#X obj 551 375 beat-checkbox 8 \$1;
#X obj 25 137 beat-checkbox 9 \$1;
#X obj 198 137 beat-checkbox 10 \$1;
#X obj 376 136 beat-checkbox 11 \$1;
#X obj 551 136 beat-checkbox 12 \$1;
#X obj 25 167 beat-checkbox 17 \$1;
#X obj 198 167 beat-checkbox 18 \$1;
#X obj 376 166 beat-checkbox 19 \$1;
#X obj 551 166 beat-checkbox 20 \$1;
#X obj 25 197 beat-checkbox 25 \$1;
#X obj 198 197 beat-checkbox 26 \$1;
#X obj 376 196 beat-checkbox 27 \$1;
#X obj 551 196 beat-checkbox 28 \$1;
#X obj 25 237 beat-checkbox 33 \$1;
#X obj 198 237 beat-checkbox 34 \$1;
#X obj 376 236 beat-checkbox 35 \$1;
#X obj 551 236 beat-checkbox 36 \$1;
#X obj 25 267 beat-checkbox 41 \$1;
#X obj 198 267 beat-checkbox 42 \$1;
#X obj 376 266 beat-checkbox 43 \$1;
#X obj 551 266 beat-checkbox 44 \$1;
#X obj 25 297 beat-checkbox 49 \$1;
#X obj 198 297 beat-checkbox 50 \$1;
#X obj 376 296 beat-checkbox 51 \$1;
#X obj 551 296 beat-checkbox 52 \$1;
#X obj 25 327 beat-checkbox 57 \$1;
#X obj 198 327 beat-checkbox 58 \$1;
#X obj 376 326 beat-checkbox 59 \$1;
#X obj 551 326 beat-checkbox 60 \$1;
#X obj 25 406 beat-checkbox 13 \$1;
#X obj 198 406 beat-checkbox 14 \$1;
#X obj 376 405 beat-checkbox 15 \$1;
#X obj 551 405 beat-checkbox 16 \$1;
#X obj 25 436 beat-checkbox 21 \$1;
#X obj 198 436 beat-checkbox 22 \$1;
#X obj 376 435 beat-checkbox 23 \$1;
#X obj 551 435 beat-checkbox 24 \$1;
#X obj 25 466 beat-checkbox 29 \$1;
#X obj 198 466 beat-checkbox 30 \$1;
#X obj 376 465 beat-checkbox 31 \$1;
#X obj 551 465 beat-checkbox 32 \$1;
#X obj 25 506 beat-checkbox 37 \$1;
#X obj 25 536 beat-checkbox 45 \$1;
#X obj 25 566 beat-checkbox 53 \$1;
#X obj 25 596 beat-checkbox 61 \$1;
#X obj 198 506 beat-checkbox 38 \$1;
#X obj 198 536 beat-checkbox 46 \$1;
#X obj 198 566 beat-checkbox 54 \$1;
#X obj 198 596 beat-checkbox 62 \$1;
#X obj 376 505 beat-checkbox 39 \$1;
#X obj 376 535 beat-checkbox 47 \$1;
#X obj 376 565 beat-checkbox 55 \$1;
#X obj 376 595 beat-checkbox 63 \$1;
#X obj 551 505 beat-checkbox 40 \$1;
#X obj 551 535 beat-checkbox 48 \$1;
#X obj 551 565 beat-checkbox 56 \$1;
#X obj 551 595 beat-checkbox 64 \$1;
#X connect 0 0 1 0;
#X connect 1 0 2 0;
#X connect 1 0 3 0;
#X connect 1 0 4 0;
#X connect 1 0 5 0;
#X connect 2 0 6 0;
#X connect 2 0 14 0;
#X connect 2 0 18 0;
#X connect 2 0 22 0;
#X connect 2 0 26 0;
#X connect 2 0 30 0;
#X connect 2 0 34 0;
#X connect 2 0 38 0;
#X connect 2 0 10 0;
#X connect 2 0 42 0;
#X connect 2 0 46 0;
#X connect 2 0 50 0;
#X connect 2 0 54 0;
#X connect 2 0 55 0;
#X connect 2 0 56 0;
#X connect 2 0 57 0;
#X connect 3 0 7 0;
#X connect 3 0 15 0;
#X connect 3 0 19 0;
#X connect 3 0 23 0;
#X connect 3 0 27 0;
#X connect 3 0 31 0;
#X connect 3 0 35 0;
#X connect 3 0 39 0;
#X connect 3 0 11 0;
#X connect 3 0 43 0;
#X connect 3 0 47 0;
#X connect 3 0 51 0;
#X connect 3 0 58 0;
#X connect 3 0 59 0;
#X connect 3 0 60 0;
#X connect 3 0 61 0;
#X connect 4 0 8 0;
#X connect 4 0 16 0;
#X connect 4 0 20 0;
#X connect 4 0 24 0;
#X connect 4 0 28 0;
#X connect 4 0 32 0;
#X connect 4 0 36 0;
#X connect 4 0 40 0;
#X connect 4 0 12 0;
#X connect 4 0 44 0;
#X connect 4 0 48 0;
#X connect 4 0 52 0;
#X connect 4 0 62 0;
#X connect 4 0 63 0;
#X connect 4 0 64 0;
#X connect 4 0 65 0;
#X connect 5 0 9 0;
#X connect 5 0 17 0;
#X connect 5 0 21 0;
#X connect 5 0 25 0;
#X connect 5 0 29 0;
#X connect 5 0 33 0;
#X connect 5 0 37 0;
#X connect 5 0 41 0;
#X connect 5 0 13 0;
#X connect 5 0 45 0;
#X connect 5 0 49 0;
#X connect 5 0 53 0;
#X connect 5 0 66 0;
#X connect 5 0 67 0;
#X connect 5 0 68 0;
#X connect 5 0 69 0;
