#N canvas 576 470 547 577 10;
#X obj 34 406 sel 0 1;
#X msg 69 433 22;
#X msg 34 433 0;
#X obj 34 502 s onSeq-col\$1;
#X obj 34 120 r onSeq\$1;
#X msg 34 461 color \$1;
#X obj 156 193 r 64-tick-val;
#X obj 263 164 loadbang;
#X obj 263 195 int \$1;
#X obj 203 257 ==;
#X obj 203 292 spigot;
#X floatatom 34 362 5 0 0 0 - - -;
#X obj 457 241 inlet bang;
#X obj 359 383 s onSeq-col\$1;
#X floatatom 263 235 5 0 0 0 - - -;
#X obj 359 137 spigot;
#X floatatom 359 311 5 0 0 0 - - -;
#X floatatom 432 84 5 0 0 0 - - -;
#X floatatom 347 84 5 0 0 0 - - -;
#X obj 392 100 ==;
#X obj 432 14 loadbang;
#X obj 432 51 i \$2;
#X obj 347 14 r instrument;
#X floatatom 431 154 5 0 0 0 - - -;
#X msg 203 485 color 13;
#X msg 359 212 set \$1;
#X obj 306 413 s play-instrument-\$2;
#X obj 203 328 t b;
#X obj 78 345 del 100;
#X msg 306 345 0;
#X msg 359 258 0;
#X obj 203 442 del 100;
#X floatatom 242 408 5 0 0 0 - - -;
#X floatatom 117 284 5 0 0 0 - - -;
#X obj 117 315 + 100;
#X text 32 28 tick is used for syncing interface and sound \, so the
beat and the flash is at the same time;
#X obj 117 257 r 64-tick-val;
#X obj 242 379 r 64-tick-val;
#X obj 482 123 loadbang;
#X obj 482 154 int \$1;
#X obj 413 188 tabwrite a-\$2;
#X connect 0 0 2 0;
#X connect 0 1 1 0;
#X connect 1 0 5 0;
#X connect 2 0 5 0;
#X connect 4 0 11 0;
#X connect 4 0 15 0;
#X connect 5 0 3 0;
#X connect 6 0 9 0;
#X connect 7 0 8 0;
#X connect 8 0 9 1;
#X connect 8 0 14 0;
#X connect 9 0 10 0;
#X connect 9 0 10 1;
#X connect 10 0 27 0;
#X connect 11 0 0 0;
#X connect 12 0 30 0;
#X connect 15 0 23 0;
#X connect 15 0 25 0;
#X connect 15 0 40 0;
#X connect 16 0 13 0;
#X connect 17 0 19 1;
#X connect 18 0 19 0;
#X connect 19 0 15 1;
#X connect 20 0 21 0;
#X connect 21 0 17 0;
#X connect 22 0 18 0;
#X connect 24 0 3 0;
#X connect 25 0 30 0;
#X connect 25 0 29 0;
#X connect 27 0 29 0;
#X connect 27 0 28 0;
#X connect 27 0 31 0;
#X connect 28 0 11 0;
#X connect 29 0 26 0;
#X connect 30 0 16 0;
#X connect 31 0 24 0;
#X connect 32 0 31 1;
#X connect 33 0 34 0;
#X connect 34 0 28 1;
#X connect 36 0 33 0;
#X connect 37 0 32 0;
#X connect 38 0 39 0;
#X connect 39 0 40 1;
