#N canvas 442 179 1158 588 10;
#N canvas 561 259 871 612 Boomsound 0;
#X obj 82 81 noise~;
#X obj 81 133 lop~ 70;
#X obj 80 158 lop~ 70;
#X obj 80 204 hip~ 1;
#X obj 81 289 *~;
#X obj 80 181 *~ 40;
#X obj 227 179 + 600;
#X obj 227 156 * 12000;
#X obj 149 73 * 200;
#X obj 82 103 bp~ 70 1;
#X obj 81 254 *~;
#X obj 144 176 *~ 0.5;
#X obj 97 231 +~ 0.35;
#X obj 137 10 swap 1;
#X obj 137 46 -;
#X obj 67 -29 t f f f;
#X obj 150 94 + 10;
#X obj 67 -53 5;
#X obj 351 206 cos~;
#X obj 349 112 line~;
#X obj 348 161 *~ 16;
#X obj 350 183 wrap~;
#X obj 348 137 *~;
#X msg 365 82 1 0;
#X obj 329 38 t b b;
#X msg 329 81 0 10;
#X obj 350 229 hip~ 1;
#X obj 344 -42 bng 15 250 50 0 empty empty empty 17 7 0 10 -262144
-1 -1;
#X obj 343 -92 inlet;
#X obj 278 380 outlet~;
#X obj 178 220 vead;
#X obj 165 331 *~ 5;
#X obj 197 185 400;
#X connect 0 0 9 0;
#X connect 1 0 2 0;
#X connect 2 0 5 0;
#X connect 3 0 10 0;
#X connect 4 0 31 0;
#X connect 5 0 3 0;
#X connect 6 0 30 2;
#X connect 7 0 6 0;
#X connect 8 0 16 0;
#X connect 9 0 1 0;
#X connect 10 0 4 0;
#X connect 11 0 12 0;
#X connect 12 0 10 1;
#X connect 13 0 14 0;
#X connect 13 1 14 1;
#X connect 14 0 8 0;
#X connect 15 0 13 0;
#X connect 15 1 11 0;
#X connect 15 2 7 0;
#X connect 16 0 9 1;
#X connect 16 0 1 1;
#X connect 16 0 2 1;
#X connect 17 0 15 0;
#X connect 18 0 26 0;
#X connect 19 0 22 0;
#X connect 19 0 22 1;
#X connect 20 0 21 0;
#X connect 21 0 18 0;
#X connect 22 0 20 0;
#X connect 23 0 19 0;
#X connect 24 0 25 0;
#X connect 24 1 23 0;
#X connect 25 0 19 0;
#X connect 26 0 29 0;
#X connect 27 0 24 0;
#X connect 28 0 24 0;
#X connect 28 0 30 0;
#X connect 28 0 32 0;
#X connect 30 0 4 1;
#X connect 31 0 29 0;
#X connect 32 0 30 1;
#X restore 158 59 pd Boomsound;
#X obj 157 -24 inlet;
#X obj 283 -8 inlet;
#X obj 186 167 *~;
#X obj 255 148 *~;
#X obj 241 103 -;
#X floatatom 307 62 5 0 0 0 - - -;
#X obj 212 20 del 1;
#X obj 135 23 del 2;
#X obj 124 84 1;
#X obj 43 -48 bng 15 250 50 0 empty empty empty 17 7 0 10 -262144 -1
-1;
#X obj 182 281 outlet~;
#X obj 279 303 outlet~;
#X connect 0 0 3 0;
#X connect 0 0 4 0;
#X connect 1 0 5 0;
#X connect 1 0 7 0;
#X connect 1 0 8 0;
#X connect 2 0 4 1;
#X connect 2 0 5 1;
#X connect 2 0 6 0;
#X connect 3 0 11 0;
#X connect 4 0 12 0;
#X connect 5 0 3 1;
#X connect 7 0 5 0;
#X connect 7 0 9 0;
#X connect 8 0 0 0;
#X connect 9 0 5 0;
#X connect 10 0 8 0;
#X connect 10 0 7 0;
