#N canvas 154 157 450 300 10;
#N canvas 673 275 450 300 CubeSolve 0;
#X obj 62 139 osc~ 440;
#X obj 297 131 vline~;
#X obj 118 194 *~;
#X msg 298 75 1 100 \, 0 100 200;
#X obj 57 107 vline~;
#X msg 11 41 220 100 \, 0 100 200;
#X obj 135 225 *~ 0.5;
#X obj 106 12 inlet;
#X obj 134 268 outlet~;
#X msg 46 64 330 100 \, 0 100 200;
#X obj 162 38 del 250;
#X obj 194 58 del 250;
#X msg 113 82 660 100 \, 0 100 200;
#X connect 0 0 2 0;
#X connect 1 0 2 1;
#X connect 2 0 6 0;
#X connect 3 0 1 0;
#X connect 4 0 0 0;
#X connect 5 0 4 0;
#X connect 6 0 8 0;
#X connect 7 0 5 0;
#X connect 7 0 3 0;
#X connect 7 0 10 0;
#X connect 9 0 4 0;
#X connect 10 0 9 0;
#X connect 10 0 3 0;
#X connect 10 0 11 0;
#X connect 11 0 12 0;
#X connect 11 0 3 0;
#X connect 12 0 4 0;
#X restore 82 55 pd CubeSolve;
#X obj 83 2 inlet;
#X obj 96 139 dac~;
#X connect 0 0 2 0;
#X connect 0 0 2 1;
#X connect 1 0 0 0;
