#N canvas 1824 193 450 300 10;
#N canvas 2127 478 450 300 clicksound 0;
#X obj 108 138 osc~ 440;
#X obj 217 137 vline~;
#X obj 164 193 *~;
#X msg 218 81 1 100 \, 0 100 200;
#X obj 170 37 bng 15 250 50 0 empty empty empty 17 7 0 10 -262144 -1
-1;
#X obj 103 106 vline~;
#X msg 75 82 220 100 \, 0 100 200;
#X obj 181 224 *~ 0.5;
#X obj 152 11 inlet;
#X obj 156 264 outlet~;
#X connect 0 0 2 0;
#X connect 1 0 2 1;
#X connect 2 0 7 0;
#X connect 3 0 1 0;
#X connect 4 0 3 0;
#X connect 4 0 6 0;
#X connect 5 0 0 0;
#X connect 6 0 5 0;
#X connect 7 0 9 0;
#X connect 8 0 6 0;
#X connect 8 0 3 0;
#X restore 108 -11 pd clicksound;
#X obj 110 -95 inlet;
#X obj 183 128 dac~;
#X obj 236 -79 inlet;
#X obj 139 96 *~;
#X obj 208 77 *~;
#X obj 194 32 -;
#X floatatom 260 -9 5 0 0 0 - - -;
#X obj 165 -51 del 1;
#X obj 88 -48 del 2;
#X obj 77 13 1;
#X connect 0 0 4 0;
#X connect 0 0 5 0;
#X connect 1 0 6 0;
#X connect 1 0 8 0;
#X connect 1 0 9 0;
#X connect 3 0 5 1;
#X connect 3 0 6 1;
#X connect 3 0 7 0;
#X connect 4 0 2 0;
#X connect 5 0 2 1;
#X connect 6 0 4 1;
#X connect 8 0 6 0;
#X connect 8 0 10 0;
#X connect 9 0 0 0;
#X connect 10 0 6 0;
