#N canvas 648 52 667 710 10;
#N canvas 817 255 654 707 rattlesound 0;
#N canvas 125 433 450 300 rippler 0;
#X obj 178 82 *~;
#X obj 177 116 wrap~;
#X obj 175 153 sqrt~;
#X obj 174 189 cos~;
#X obj 178 43 inlet~;
#X obj 166 223 outlet~;
#X connect 0 0 1 0;
#X connect 1 0 2 0;
#X connect 2 0 3 0;
#X connect 3 0 5 0;
#X connect 4 0 0 0;
#X connect 4 0 0 1;
#X restore 136 466 pd rippler;
#N canvas 0 0 667 710 combtube 0;
#X obj 12 6 inlet~;
#X obj 118 190 + 0;
#X obj 213 128 * 1.414;
#X obj 305 211 * 1.414;
#X obj 277 176 * 1.414;
#X obj 245 151 * 1.414;
#X obj 337 237 * 1.414;
#X obj 366 269 * 1.414;
#X obj 182 162 t b;
#X obj 175 234 +;
#X obj 279 317 +;
#X obj 195 254 +;
#X obj 250 294 +;
#X obj 215 274 +;
#X obj 309 340 +;
#X obj 339 362 +;
#X obj 28 409 bp~ 1 1;
#X obj 82 409 bp~ 1 1;
#X obj 136 410 bp~ 1 1;
#X obj 186 411 bp~ 1 1;
#X obj 240 410 bp~ 1 1;
#X obj 294 410 bp~ 1 1;
#X obj 348 411 bp~ 1 1;
#X obj 398 412 bp~ 1 1;
#X obj 113 47 inlet;
#X obj 185 48 inlet;
#X obj 274 49 inlet;
#X obj 213 475 outlet~;
#X connect 0 0 16 0;
#X connect 0 0 17 0;
#X connect 0 0 18 0;
#X connect 0 0 19 0;
#X connect 0 0 20 0;
#X connect 0 0 21 0;
#X connect 0 0 22 0;
#X connect 0 0 23 0;
#X connect 1 0 9 0;
#X connect 1 0 16 1;
#X connect 2 0 5 0;
#X connect 2 0 11 1;
#X connect 3 0 6 0;
#X connect 3 0 10 1;
#X connect 4 0 3 0;
#X connect 4 0 12 1;
#X connect 5 0 4 0;
#X connect 5 0 13 1;
#X connect 6 0 7 0;
#X connect 6 0 14 1;
#X connect 7 0 15 1;
#X connect 8 0 1 0;
#X connect 8 0 9 0;
#X connect 9 0 11 0;
#X connect 9 0 17 1;
#X connect 10 0 14 0;
#X connect 10 0 21 1;
#X connect 11 0 13 0;
#X connect 11 0 18 1;
#X connect 12 0 10 0;
#X connect 12 0 20 1;
#X connect 13 0 12 0;
#X connect 13 0 19 1;
#X connect 14 0 15 0;
#X connect 14 0 22 1;
#X connect 15 0 23 1;
#X connect 16 0 27 0;
#X connect 17 0 27 0;
#X connect 18 0 27 0;
#X connect 19 0 27 0;
#X connect 20 0 27 0;
#X connect 21 0 27 0;
#X connect 22 0 27 0;
#X connect 23 0 27 0;
#X connect 24 0 1 0;
#X connect 25 0 9 1;
#X connect 25 0 8 0;
#X connect 25 0 2 0;
#X connect 26 0 16 2;
#X connect 26 0 17 2;
#X connect 26 0 18 2;
#X connect 26 0 19 2;
#X connect 26 0 20 2;
#X connect 26 0 21 2;
#X connect 26 0 22 2;
#X connect 26 0 23 2;
#X restore 267 520 pd combtube;
#X msg 343 94 0 0;
#X obj 135 411 phasor~ 100;
#X obj 268 153 * 3.14159;
#X obj 268 178 * 0.5;
#X obj 268 200 cos;
#X obj 268 225 t b f;
#X msg 268 248 1;
#X obj 280 271 -;
#X obj 280 295 * 0.5;
#X obj 280 317 + 0.25;
#X obj 269 549 *~;
#X obj 135 438 *~;
#X obj 136 364 * 40;
#X obj 176 365 * 0.5;
#X obj 175 388 + 1.385;
#X obj 331 375 max 0.5;
#X obj 331 400 - 0.5;
#X obj 331 425 * 2;
#X obj 331 449 sqrt;
#X obj 390 375 * 7;
#X obj 390 402 + 60;
#X obj 235 366 * 300;
#X obj 234 389 + 10;
#X obj 280 366 * 20;
#X obj 280 391 + 100;
#X obj 136 496 *~ 0.1;
#X obj 273 579 *~;
#X obj 265 125 line 0 10;
#X msg 236 90 5 1900;
#X obj 360 49 del 800;
#X obj 492 562 0.5;
#X obj 274 627 outlet~;
#X obj 272 10 inlet;
#X connect 0 0 27 0;
#X connect 1 0 12 0;
#X connect 2 0 29 0;
#X connect 3 0 13 0;
#X connect 4 0 5 0;
#X connect 5 0 6 0;
#X connect 6 0 7 0;
#X connect 7 0 8 0;
#X connect 7 1 9 1;
#X connect 8 0 9 0;
#X connect 9 0 10 0;
#X connect 10 0 11 0;
#X connect 11 0 14 0;
#X connect 11 0 15 0;
#X connect 11 0 17 0;
#X connect 11 0 21 0;
#X connect 11 0 23 0;
#X connect 11 0 25 0;
#X connect 12 0 28 0;
#X connect 13 0 0 0;
#X connect 14 0 3 0;
#X connect 15 0 16 0;
#X connect 16 0 13 1;
#X connect 17 0 18 0;
#X connect 18 0 19 0;
#X connect 19 0 20 0;
#X connect 20 0 12 1;
#X connect 21 0 22 0;
#X connect 22 0 1 3;
#X connect 23 0 24 0;
#X connect 24 0 1 1;
#X connect 25 0 26 0;
#X connect 26 0 1 2;
#X connect 27 0 1 0;
#X connect 28 0 33 0;
#X connect 29 0 4 0;
#X connect 30 0 29 0;
#X connect 31 0 2 0;
#X connect 32 0 28 1;
#X connect 34 0 30 0;
#X connect 34 0 31 0;
#X connect 34 0 32 0;
#X restore 94 -30 pd rattlesound;
#X obj 90 -115 inlet;
#X obj 216 -99 inlet;
#X obj 119 76 *~;
#X obj 188 57 *~;
#X obj 174 12 -;
#X floatatom 240 -29 5 0 0 0 - - -;
#X obj 145 -71 del 1;
#X obj 68 -68 del 2;
#X obj 51 -24 1;
#X obj 105 128 outlet~;
#X obj 185 139 outlet~;
#X connect 0 0 3 0;
#X connect 0 0 4 0;
#X connect 1 0 5 0;
#X connect 1 0 7 0;
#X connect 1 0 8 0;
#X connect 2 0 4 1;
#X connect 2 0 5 1;
#X connect 2 0 6 0;
#X connect 3 0 10 0;
#X connect 4 0 11 0;
#X connect 5 0 3 1;
#X connect 7 0 5 0;
#X connect 7 0 9 0;
#X connect 8 0 0 0;
#X connect 9 0 5 0;
