#N canvas 901 422 450 300 10;
#X obj 290 54 SFX;
#X obj 177 235 dac~;
#X obj 341 45 r sfxVolume;
#X obj 7 66 r musicVolume;
#X obj 184 52 r masterVolume;
#X obj 283 92 *~ 1;
#X obj 315 91 *~ 1;
#X obj 264 122 *~ 1;
#X obj 302 123 *~ 1;
#X obj 116 66 MUSIC;
#X obj 116 116 *~ 1;
#X obj 117 90 *~ 0;
#X connect 0 0 5 0;
#X connect 0 1 6 0;
#X connect 2 0 6 1;
#X connect 2 0 5 1;
#X connect 3 0 11 1;
#X connect 4 0 7 1;
#X connect 4 0 8 1;
#X connect 4 0 10 1;
#X connect 5 0 7 0;
#X connect 6 0 8 0;
#X connect 7 0 1 0;
#X connect 8 0 1 1;
#X connect 9 0 11 0;
#X connect 10 0 1 0;
#X connect 10 0 1 1;
#X connect 11 0 10 0;
