#N canvas 436 453 757 267 10;
#N canvas 198 72 1595 796 load_song 0;
#N canvas 0 0 1213 522 (subpatch) 0;
#X array a-0 65 float 3;
#A 0 0 0 0 0 0 0 0 0 0 0 0 0 0 0 0 0 0 0 0 0 0 0 0 0 0 0 0 0 0 0 0
0 0 0 0 0 0 0 0 0 0 0 0 0 0 0 0 0 0 0 0 0 0 0 0 0 0 0 0 0 0 0 0 0 0
;
#X coords 0 1 65 0 200 140 1 0 0;
#X restore -13356 -11 graph;
#N canvas 0 0 450 300 (subpatch) 0;
#X array a-1 65 float 3;
#A 0 0 1 0 0 0 0 0 0 0 1 0 0 0 0 0 0 0 1 0 0 0 0 0 0 0 1 0 0 0 0 0
0 0 1 0 0 0 0 0 0 0 1 0 0 0 0 0 0 0 1 0 0 0 0 0 0 0 1 0 0 0 0 0 0 0
;
#X coords 0 1 65 0 200 140 1 0 0;
#X restore -13139 -10 graph;
#N canvas 0 0 450 300 (subpatch) 0;
#X array a-2 65 float 3;
#A 0 0 0 0 0 0 0 0 0 0 0 0 0 0 0 0 0 0 0 0 0 0 0 0 0 0 0 0 0 0 0 0
0 0 0 0 0 0 0 0 0 0 0 0 0 0 0 0 0 0 0 0 0 0 0 0 0 0 0 0 0 0 0 0 0 0
;
#X coords 0 1 65 0 200 140 1 0 0;
#X restore -12924 -10 graph;
#N canvas 0 0 450 300 (subpatch) 0;
#X array a-3 65 float 3;
#A 0 0 0 0 0 0 0 0 0 0 0 0 0 0 0 0 0 0 0 0 0 0 0 0 0 0 0 0 0 0 0 0
0 0 0 0 0 0 0 0 0 0 0 0 0 0 0 0 0 0 0 0 0 0 0 0 0 0 0 0 0 0 0 0 0 0
;
#X coords 0 1 65 0 200 140 1 0 0;
#X restore -12710 -11 graph;
#N canvas 0 0 450 300 (subpatch) 0;
#X array a-4 65 float 3;
#A 0 0 0 0 0 0 0 0 0 0 0 0 0 0 0 0 0 0 0 0 0 0 0 0 0 0 0 0 0 0 0 0
0 0 0 0 0 0 0 0 0 0 0 0 0 0 0 0 0 0 0 0 0 0 0 0 0 0 0 0 0 0 0 0 0 0
;
#X coords 0 1 65 0 200 140 1 0 0;
#X restore -13356 153 graph;
#N canvas 0 0 450 300 (subpatch) 0;
#X array a-5 65 float 3;
#A 0 0 0 0 0 0 0 0 0 0 0 0 0 0 0 0 0 0 0 0 0 0 0 0 0 0 0 0 0 0 0 0
0 0 0 0 0 0 0 0 0 0 0 0 0 0 0 0 0 0 0 0 0 0 0 0 0 0 0 0 0 0 0 0 0 0
;
#X coords 0 1 65 0 200 140 1 0 0;
#X restore -13139 154 graph;
#N canvas 0 0 450 300 (subpatch) 0;
#X array a-6 65 float 3;
#A 0 0 0 0 0 0 0 0 0 0 0 0 0 0 0 0 0 0 0 0 0 0 0 0 0 0 0 0 0 0 0 0
0 0 0 0 0 0 0 0 0 0 0 0 0 0 0 0 0 0 0 0 0 0 0 0 0 0 0 0 0 0 0 0 0 0
;
#X coords 0 1 65 0 200 140 1 0 0;
#X restore -12924 154 graph;
#N canvas 0 0 450 300 (subpatch) 0;
#X array a-7 65 float 3;
#A 0 0 0 0 0 0 0 0 0 0 0 0 0 0 0 0 0 0 0 0 0 0 0 0 0 0 0 0 0 0 0 0
0 0 0 0 0 0 0 0 0 0 0 0 0 0 0 0 0 0 0 0 0 0 0 0 0 0 0 0 0 0 0 0 0 0
;
#X coords 0 1 65 0 200 140 1 0 0;
#X restore -12710 153 graph;
#N canvas 0 0 450 300 (subpatch) 0;
#X array a-8 65 float 3;
#A 0 0 0 0 0 0 0 0 0 0 0 0 0 0 0 0 0 0 0 0 0 0 0 0 0 0 0 0 0 0 0 0
0 0 0 0 0 0 0 0 0 0 0 0 0 0 0 0 0 0 0 0 0 0 0 0 0 0 0 0 0 0 0 0 0 0
;
#X coords 0 1 65 0 200 140 1 0 0;
#X restore -13356 323 graph;
#N canvas 0 0 450 300 (subpatch) 0;
#X array bass 33 float 3;
#A 0 1 0 2 0 2 0 0 0 7 2 2 7 7 1 5 1 7 7 2 3 2 4 3 2 7 2 4 2 7 2 5
2 7;
#X coords 0 7 33 0 202 141 1 0 0;
#X restore -13139 321 graph;
#X obj -13509 -18 r Load-current-melody;
#X obj -13509 18 t b;
#X msg -13509 54 \; a-0 read a-0.ins \; a-1 read a-1.ins \; a-2 read
a-2.ins \; a-3 read a-3.ins \; a-4 read a-4.ins \; a-5 read a-5.ins
\; a-6 read a-6.ins \; a-7 read a-7.ins \; a-8 read a-8.ins \; bass
read bass.ins \;;
#X connect 10 0 11 0;
#X connect 11 0 12 0;
#X restore 9 8 pd load_song;
#N canvas 398 232 333 258 bpm-metro 0;
#X obj 108 14 r bpm;
#X obj 108 225 outlet;
#X obj 108 44 t b f;
#X msg 108 81 60000;
#X obj 108 121 /;
#X obj 108 156 int;
#X floatatom 108 192 5 0 0 0 - - -;
#X floatatom 193 31 5 0 0 0 - - -;
#X connect 0 0 2 0;
#X connect 0 0 7 0;
#X connect 2 0 3 0;
#X connect 2 1 4 1;
#X connect 3 0 4 0;
#X connect 4 0 5 0;
#X connect 5 0 6 0;
#X connect 6 0 1 0;
#X restore 95 8 pd bpm-metro;
#N canvas 955 613 425 229 tick 0;
#X obj 130 22 inlet;
#X obj 205 134 % 64;
#X obj 205 160 + 1;
#X obj 43 134 % 32;
#X obj 43 160 + 1;
#N canvas 493 480 354 300 time-signature 0;
#X obj 125 15 inlet;
#X obj -17 209 metro;
#X obj -17 264 outlet;
#X obj 152 75 sel 0 1 2 3;
#X obj 73 15 inlet;
#X obj 125 47 t b f;
#X msg 152 98 0.25;
#X msg 168 123 0.5;
#X msg 184 149 1;
#X msg 199 175 1.5;
#X obj 73 192 *;
#X obj -17 21 loadbang;
#X obj -17 236 i;
#X obj 17 236 + 1;
#X connect 0 0 5 0;
#X connect 1 0 12 0;
#X connect 3 0 6 0;
#X connect 3 1 7 0;
#X connect 3 2 8 0;
#X connect 3 3 9 0;
#X connect 4 0 10 0;
#X connect 5 0 10 0;
#X connect 5 1 3 0;
#X connect 6 0 10 1;
#X connect 7 0 10 1;
#X connect 8 0 10 1;
#X connect 9 0 10 1;
#X connect 10 0 1 1;
#X connect 11 0 1 0;
#X connect 12 0 13 0;
#X connect 12 0 2 0;
#X connect 13 0 12 1;
#X restore 43 83 pd time-signature;
#X obj 43 191 outlet;
#X obj 205 191 outlet;
#X obj 201 30 loadbang;
#X msg 201 55 0;
#X obj 314 30 loadbang;
#X msg 314 55 0;
#N canvas 493 480 354 300 time-signature 0;
#X obj 125 15 inlet;
#X obj -17 209 metro;
#X obj -17 264 outlet;
#X obj 152 75 sel 0 1 2 3;
#X obj 73 15 inlet;
#X obj 125 47 t b f;
#X msg 152 98 0.25;
#X msg 168 123 0.5;
#X msg 184 149 1;
#X msg 199 175 1.5;
#X obj 73 192 *;
#X obj -17 21 loadbang;
#X obj -17 236 i;
#X obj 17 236 + 1;
#X connect 0 0 5 0;
#X connect 1 0 12 0;
#X connect 3 0 6 0;
#X connect 3 1 7 0;
#X connect 3 2 8 0;
#X connect 3 3 9 0;
#X connect 4 0 10 0;
#X connect 5 0 10 0;
#X connect 5 1 3 0;
#X connect 6 0 10 1;
#X connect 7 0 10 1;
#X connect 8 0 10 1;
#X connect 9 0 10 1;
#X connect 10 0 1 1;
#X connect 11 0 1 0;
#X connect 12 0 13 0;
#X connect 12 0 2 0;
#X connect 13 0 12 1;
#X restore 205 83 pd time-signature;
#X connect 0 0 5 0;
#X connect 0 0 12 0;
#X connect 1 0 2 0;
#X connect 2 0 7 0;
#X connect 3 0 4 0;
#X connect 4 0 6 0;
#X connect 5 0 3 0;
#X connect 8 0 9 0;
#X connect 9 0 5 1;
#X connect 10 0 11 0;
#X connect 11 0 12 1;
#X connect 12 0 1 0;
#X restore 95 44 pd tick;
#X obj 348 225 outlet~;
#N canvas 487 35 931 877 kick 0;
#X msg 1032 19 1 0 \, 0 120;
#X obj 1032 38 line 1 120;
#X text 1078 532 sg 2008;
#X obj 36 -85 inlet;
#X obj 29 348 outlet~;
#X obj 32 176 *~ 15;
#X obj 33 149 *~;
#X obj 34 -11 t b;
#X obj 39 -44 bng 15 250 50 0 empty empty empty 17 7 0 10 -262144 -1
-1;
#X obj 35 23 vead;
#X obj 118 -23 2;
#X obj 184 -1 500;
#N canvas 0 22 462 312 rh_scalelog 0;
#X obj 20 155 exp;
#X obj 20 107 *;
#X obj 20 130 +;
#X obj 98 87 log;
#X obj 194 84 log;
#X obj 123 123 t b f;
#X obj 123 145 -;
#X obj 20 183 outlet;
#X obj 20 19 inlet;
#X obj 98 23 inlet;
#X obj 194 24 inlet;
#X connect 0 0 7 0;
#X connect 1 0 2 0;
#X connect 2 0 0 0;
#X connect 3 0 2 1;
#X connect 3 0 5 0;
#X connect 4 0 6 0;
#X connect 5 0 6 0;
#X connect 5 1 6 1;
#X connect 6 0 1 1;
#X connect 8 0 1 0;
#X connect 9 0 3 0;
#X connect 10 0 4 0;
#X restore 169 183 pd rh_scalelog;
#X msg 262 158 10;
#X msg 216 160 0.1;
#X obj 197 74 vline~;
#X obj 33 264 *~;
#X obj 143 239 *~;
#X msg 183 155 1;
#X msg 97 186 0.25;
#X obj 33 305 *~ 0.1;
#X obj 33 232 osc~ 0.1;
#X obj 32 200 +~ 40;
#X msg 198 49 0 5 \, 1 3 5 \, 0 400 8;
#X connect 0 0 1 0;
#X connect 3 0 8 0;
#X connect 5 0 22 0;
#X connect 6 0 5 0;
#X connect 7 0 19 0;
#X connect 7 0 9 0;
#X connect 8 0 7 0;
#X connect 8 0 10 0;
#X connect 8 0 9 0;
#X connect 8 0 11 0;
#X connect 8 0 18 0;
#X connect 8 0 14 0;
#X connect 8 0 13 0;
#X connect 8 0 23 0;
#X connect 9 0 6 1;
#X connect 9 0 6 0;
#X connect 10 0 9 1;
#X connect 11 0 9 2;
#X connect 12 0 17 1;
#X connect 13 0 12 2;
#X connect 14 0 12 1;
#X connect 15 0 17 0;
#X connect 16 0 20 0;
#X connect 17 0 16 1;
#X connect 18 0 12 0;
#X connect 19 0 21 1;
#X connect 20 0 4 0;
#X connect 21 0 16 0;
#X connect 22 0 21 0;
#X connect 23 0 15 0;
#X restore 27 167 pd kick;
#N canvas 388 29 995 776 snr 0;
#X obj 91 46 inlet;
#X obj 90 67 t b;
#X msg 149 45 bang;
#X obj 156 566 outlet~;
#X obj 187 171 noise~;
#X obj 144 409 *~;
#X obj 169 244 *~;
#X obj 157 433 *~;
#X obj 214 401 *~;
#X obj 55 177 *~;
#X obj 112 431 *~;
#X obj 55 202 *~ 12;
#X obj 151 463 clip~ 0 1;
#X obj 78 310 clip~ -0.8 0.8;
#X obj 152 484 *~ 0.4;
#X obj 98 468 *~ 0.9;
#X obj 187 195 bp~ 3300 0.5;
#X obj 187 219 lop~ 7000;
#X obj 156 537 bp~ 8000 1;
#X obj 117 372 clip~ -0.9 0.9;
#X obj 115 350 *~ 10000;
#X obj 75 255 osc~ 110;
#X obj 63 124 vline~;
#X obj 211 425 *~ 0.2;
#X msg 62 91 1 2 0 \, 0 100 2;
#X obj 56 231 +~ 150;
#X obj 157 508 *~ 0.5;
#X connect 0 0 1 0;
#X connect 1 0 24 0;
#X connect 2 0 1 0;
#X connect 4 0 16 0;
#X connect 5 0 7 0;
#X connect 6 0 7 1;
#X connect 7 0 12 0;
#X connect 8 0 23 0;
#X connect 9 0 10 1;
#X connect 9 0 11 0;
#X connect 10 0 15 0;
#X connect 11 0 25 0;
#X connect 12 0 14 0;
#X connect 13 0 10 0;
#X connect 13 0 20 0;
#X connect 14 0 26 0;
#X connect 15 0 26 0;
#X connect 16 0 8 0;
#X connect 16 0 17 0;
#X connect 17 0 6 1;
#X connect 18 0 3 0;
#X connect 19 0 5 0;
#X connect 20 0 19 0;
#X connect 21 0 13 0;
#X connect 22 0 9 0;
#X connect 22 0 9 1;
#X connect 22 0 5 1;
#X connect 22 0 6 0;
#X connect 22 0 8 1;
#X connect 23 0 26 0;
#X connect 24 0 22 0;
#X connect 25 0 21 0;
#X connect 26 0 18 0;
#X restore 107 167 pd snr;
#N canvas 397 163 450 300 bongoh 0;
#X obj 143 93 noise~;
#X obj 194 120 clip~ -0.9 0.9;
#X obj 102 68 inlet;
#X obj 102 97 t b;
#X obj 187 185 *~;
#X obj 195 93 *~ 20;
#X obj 187 227 outlet~;
#X obj 194 144 bp~ 600 25;
#X obj 195 66 osc~ 660;
#X obj 186 205 *~ 0.7;
#X obj 90 139 vline~;
#X msg 90 118 1 4 0 \, 0 80 3;
#X connect 0 0 1 0;
#X connect 1 0 7 0;
#X connect 2 0 3 0;
#X connect 3 0 11 0;
#X connect 4 0 9 0;
#X connect 5 0 1 0;
#X connect 7 0 4 1;
#X connect 8 0 5 0;
#X connect 9 0 6 0;
#X connect 10 0 4 0;
#X connect 11 0 10 0;
#X restore 187 167 pd bongoh;
#N canvas 624 458 450 300 bongol 0;
#X obj 143 93 noise~;
#X obj 195 66 osc~ 420;
#X obj 194 120 clip~ -0.9 0.9;
#X obj 102 68 inlet;
#X obj 102 97 t b;
#X obj 187 185 *~;
#X obj 195 93 *~ 20;
#X obj 194 144 bp~ 400 25;
#X obj 187 227 outlet~;
#X obj 95 146 vline~;
#X obj 187 206 *~ 0.8;
#X msg 95 125 1 4 0 \, 0 80 4;
#X obj 20 137 ead~ 4 80;
#X connect 0 0 2 0;
#X connect 1 0 6 0;
#X connect 2 0 7 0;
#X connect 3 0 4 0;
#X connect 4 0 11 0;
#X connect 5 0 10 0;
#X connect 6 0 2 0;
#X connect 7 0 5 1;
#X connect 9 0 5 0;
#X connect 10 0 8 0;
#X connect 11 0 9 0;
#X restore 267 167 pd bongol;
#N canvas 394 148 577 483 clap 0;
#X obj -1 -30 inlet;
#X obj 23 415 outlet~;
#X obj -124 26 noise~;
#X obj 19 321 *~;
#X obj -166 306 *~;
#X obj -146 210 *~ 0.8;
#X obj 63 105 del 30;
#X obj 64 125 del 20;
#X obj 65 145 del 15;
#X obj 63 166 del 10;
#X obj -250 177 *~ 0.1;
#X obj -228 107 bp~ 1300 10;
#X obj -60 107 bp~ 700 10;
#X obj -138 107 bp~ 2500 4;
#X obj 19 365 bp~ 2700 2;
#X obj -310 107 lop~ 8000;
#X obj -125 66 hip~ 300;
#X obj -1 0 t b;
#X obj 22 386 *~ 0.7;
#X obj 24 265 vline~;
#X msg 24 240 1 3 0 \, 0 50 3;
#X msg -122 250 1 1 0 \, 0 800 1;
#X obj -122 275 vline~;
#X obj -169 339 *~ 0.1;
#X connect 0 0 17 0;
#X connect 2 0 15 0;
#X connect 2 0 16 0;
#X connect 3 0 14 0;
#X connect 4 0 3 1;
#X connect 4 0 23 0;
#X connect 5 0 4 1;
#X connect 6 0 7 0;
#X connect 6 0 20 0;
#X connect 7 0 8 0;
#X connect 7 0 20 0;
#X connect 8 0 9 0;
#X connect 8 0 20 0;
#X connect 9 0 20 0;
#X connect 10 0 5 0;
#X connect 11 0 5 0;
#X connect 12 0 5 0;
#X connect 13 0 5 0;
#X connect 14 0 18 0;
#X connect 15 0 10 0;
#X connect 16 0 11 0;
#X connect 16 0 12 0;
#X connect 16 0 13 0;
#X connect 17 0 6 0;
#X connect 17 0 20 0;
#X connect 17 0 21 0;
#X connect 18 0 1 0;
#X connect 19 0 3 0;
#X connect 20 0 19 0;
#X connect 21 0 22 0;
#X connect 22 0 4 0;
#X connect 23 0 14 0;
#X restore 347 167 pd clap;
#N canvas 0 0 480 582 bell 0;
#X obj 143 501 outlet~;
#X obj 267 18 inlet;
#X obj 204 139 wrap~;
#X obj 187 112 -~ 0.5;
#X obj 203 163 -~ 0.5;
#X obj 187 189 -~;
#X obj 221 314 wrap~;
#X obj 204 291 -~ 0.5;
#X obj 220 339 -~ 0.5;
#X obj 204 363 -~;
#X obj 187 386 *~;
#X obj 203 268 phasor~;
#X obj 277 68 t b;
#X obj 145 422 *~;
#X obj 105 139 wrap~;
#X obj 88 112 -~ 0.5;
#X obj 104 163 -~ 0.5;
#X obj 88 189 -~;
#X obj 122 314 wrap~;
#X obj 105 291 -~ 0.5;
#X obj 121 339 -~ 0.5;
#X obj 105 363 -~;
#X obj 88 386 *~;
#X obj 104 268 phasor~;
#X obj 88 89 phasor~ 2139;
#X obj 187 89 phasor~ 441;
#X obj 109 65 *~ 1.33;
#X obj 203 215 *~ 1000;
#X obj 104 215 *~ 1000;
#X obj 144 443 *~ 0.25;
#X obj 150 46 sig~ 881;
#X obj 103 243 +~ 1763;
#X obj 202 243 +~ 884;
#X obj 275 128 vline~;
#X msg 276 102 1 1 0 \, 0.5 120 1 \, 0 200 1.5;
#X connect 1 0 12 0;
#X connect 2 0 4 0;
#X connect 3 0 2 0;
#X connect 3 0 5 0;
#X connect 4 0 5 1;
#X connect 5 0 10 0;
#X connect 5 0 27 0;
#X connect 6 0 8 0;
#X connect 7 0 6 0;
#X connect 7 0 9 0;
#X connect 8 0 9 1;
#X connect 9 0 10 1;
#X connect 10 0 13 0;
#X connect 11 0 7 0;
#X connect 12 0 34 0;
#X connect 13 0 29 0;
#X connect 14 0 16 0;
#X connect 15 0 14 0;
#X connect 15 0 17 0;
#X connect 16 0 17 1;
#X connect 17 0 22 0;
#X connect 17 0 28 0;
#X connect 18 0 20 0;
#X connect 19 0 18 0;
#X connect 19 0 21 0;
#X connect 20 0 21 1;
#X connect 21 0 22 1;
#X connect 22 0 13 0;
#X connect 23 0 19 0;
#X connect 24 0 15 0;
#X connect 25 0 3 0;
#X connect 26 0 24 0;
#X connect 27 0 32 0;
#X connect 28 0 31 0;
#X connect 29 0 0 0;
#X connect 30 0 25 0;
#X connect 30 0 26 0;
#X connect 31 0 23 0;
#X connect 32 0 11 0;
#X connect 33 0 13 1;
#X connect 34 0 33 0;
#X restore 427 167 pd bell;
#N canvas 0 0 722 561 hat 0;
#X obj 57 13 inlet;
#X obj 37 494 outlet~;
#X obj 143 12 inlet;
#X obj 14 63 t b;
#X obj -44 246 *~;
#X obj 103 248 *~;
#X obj 23 278 *~;
#X obj 12 330 +~;
#X obj 23 365 osc~ 5435;
#X obj 23 301 *~ 12000;
#X obj -104 209 osc~ 6221;
#X obj 121 207 osc~ 2441;
#X obj 101 300 noise~;
#X obj 53 393 +~;
#X obj 103 364 clip~ -0.7 0.7;
#X obj 53 419 *~;
#X obj 108 417 *~;
#X obj 118 438 *~ 0.06;
#X obj 50 439 *~ 0.06;
#X obj -49 303 sig~ 7435;
#X obj 101 321 bp~ 12000 12;
#X obj 45 208 osc~ 3283;
#X obj -29 209 osc~ 4109;
#X obj 115 182 sqrt~;
#X obj 105 50 t b;
#X obj 134 103 vline~;
#X msg 134 76 1 2 0 \, 0.1 200 2 \, 0 300 4;
#X obj -24 114 vline~;
#X msg -24 87 1 2 0 \, 0.1 50 2 \, 0 100 4;
#X obj 43 154 vline~;
#X msg 43 127 1 2 0 \, 0.1 25 2 \, 0 75 4;
#X connect 0 0 3 0;
#X connect 2 0 24 0;
#X connect 3 0 28 0;
#X connect 3 0 30 0;
#X connect 4 0 6 0;
#X connect 5 0 6 1;
#X connect 6 0 9 0;
#X connect 7 0 8 0;
#X connect 8 0 13 0;
#X connect 9 0 7 1;
#X connect 10 0 4 0;
#X connect 11 0 5 1;
#X connect 12 0 20 0;
#X connect 13 0 15 0;
#X connect 13 0 16 0;
#X connect 14 0 13 1;
#X connect 15 0 18 0;
#X connect 16 0 17 0;
#X connect 17 0 1 0;
#X connect 18 0 1 0;
#X connect 19 0 7 0;
#X connect 20 0 14 0;
#X connect 21 0 5 0;
#X connect 22 0 4 1;
#X connect 23 0 15 1;
#X connect 24 0 26 0;
#X connect 24 0 30 0;
#X connect 25 0 23 0;
#X connect 26 0 25 0;
#X connect 27 0 15 1;
#X connect 28 0 27 0;
#X connect 29 0 16 1;
#X connect 30 0 29 0;
#X restore 507 167 pd hat;
#N canvas 763 284 692 561 crash 0;
#X obj 366 28 inlet;
#X obj 155 508 outlet~;
#X obj 360 116 vline~;
#X obj 371 210 vline~;
#X obj 367 65 t b;
#X obj 35 215 *~;
#X obj 182 217 *~;
#X obj 102 247 *~;
#X obj 91 299 +~;
#X obj 90 322 osc~ 5435;
#X obj 30 272 sig~ 3435;
#X obj 102 270 *~ 12000;
#X obj 200 176 osc~ 2441;
#X obj 180 269 noise~;
#X obj 132 388 *~;
#X obj 187 386 *~;
#X obj -25 178 osc~ 12221;
#X obj 52 178 osc~ 8309;
#X obj 124 177 osc~ 2383;
#X obj 180 312 clip~ -0.9 0.9;
#X obj 299 263 noise~;
#X obj 299 306 clip~ -0.9 0.9;
#X obj 180 290 bp~ 8000 4;
#X obj 94 353 *~;
#X obj 197 407 *~ 0.2;
#X obj 272 383 *~;
#X obj 129 408 *~ 0.2;
#X obj 300 411 *~ 0.4;
#X obj 298 284 bp~ 4000 7;
#X obj 156 467 *~ 0.8;
#X msg 371 178 1 100 0 \, 0 2000 100;
#X obj 132 131 vline~;
#X obj 462 149 vline~;
#X msg 462 124 1 1 0 \, 0 100 1;
#X msg 132 106 1 1000 0 \, 0.5 1000 1000 \, 0 3000 2000;
#X msg 361 91 1 2 0 \, 0.01 1500 2 \, 0 1500 1500;
#X connect 0 0 4 0;
#X connect 2 0 14 1;
#X connect 3 0 15 1;
#X connect 4 0 30 0;
#X connect 4 0 35 0;
#X connect 4 0 34 0;
#X connect 4 0 33 0;
#X connect 5 0 7 0;
#X connect 6 0 7 1;
#X connect 7 0 11 0;
#X connect 8 0 9 0;
#X connect 9 0 23 0;
#X connect 10 0 8 0;
#X connect 11 0 8 1;
#X connect 12 0 6 1;
#X connect 13 0 22 0;
#X connect 14 0 26 0;
#X connect 15 0 24 0;
#X connect 16 0 5 0;
#X connect 17 0 5 1;
#X connect 18 0 6 0;
#X connect 19 0 14 0;
#X connect 20 0 28 0;
#X connect 21 0 15 0;
#X connect 21 0 25 0;
#X connect 22 0 19 0;
#X connect 23 0 14 0;
#X connect 23 0 25 0;
#X connect 24 0 29 0;
#X connect 25 0 27 0;
#X connect 26 0 29 0;
#X connect 27 0 29 0;
#X connect 28 0 21 0;
#X connect 29 0 1 0;
#X connect 30 0 3 0;
#X connect 31 0 23 1;
#X connect 32 0 25 1;
#X connect 33 0 32 0;
#X connect 34 0 31 0;
#X connect 35 0 2 0;
#X restore 667 167 pd crash;
#X obj 27 105 tabread a-0;
#N canvas 621 616 336 191 play 0;
#X obj 61 26 inlet;
#X obj 61 59 == 1;
#X obj 61 95 spigot;
#X obj 61 127 outlet;
#X connect 0 0 1 0;
#X connect 1 0 2 0;
#X connect 1 0 2 1;
#X connect 2 0 3 0;
#X restore 27 137 pd play;
#N canvas 621 616 336 191 play 0;
#X obj 61 26 inlet;
#X obj 61 59 == 1;
#X obj 61 95 spigot;
#X obj 61 127 outlet;
#X connect 0 0 1 0;
#X connect 1 0 2 0;
#X connect 1 0 2 1;
#X connect 2 0 3 0;
#X restore 107 137 pd play;
#N canvas 621 616 336 191 play 0;
#X obj 61 26 inlet;
#X obj 61 59 == 1;
#X obj 61 95 spigot;
#X obj 61 127 outlet;
#X connect 0 0 1 0;
#X connect 1 0 2 0;
#X connect 1 0 2 1;
#X connect 2 0 3 0;
#X restore 187 137 pd play;
#N canvas 621 616 336 191 play 0;
#X obj 61 26 inlet;
#X obj 61 59 == 1;
#X obj 61 95 spigot;
#X obj 61 127 outlet;
#X connect 0 0 1 0;
#X connect 1 0 2 0;
#X connect 1 0 2 1;
#X connect 2 0 3 0;
#X restore 267 137 pd play;
#N canvas 621 616 336 191 play 0;
#X obj 61 26 inlet;
#X obj 61 59 == 1;
#X obj 61 95 spigot;
#X obj 61 127 outlet;
#X connect 0 0 1 0;
#X connect 1 0 2 0;
#X connect 1 0 2 1;
#X connect 2 0 3 0;
#X restore 347 137 pd play;
#N canvas 621 616 336 191 play 0;
#X obj 61 26 inlet;
#X obj 61 59 == 1;
#X obj 61 95 spigot;
#X obj 61 127 outlet;
#X connect 0 0 1 0;
#X connect 1 0 2 0;
#X connect 1 0 2 1;
#X connect 2 0 3 0;
#X restore 427 137 pd play;
#N canvas 621 616 336 191 play 0;
#X obj 61 26 inlet;
#X obj 61 59 == 1;
#X obj 61 95 spigot;
#X obj 61 127 outlet;
#X connect 0 0 1 0;
#X connect 1 0 2 0;
#X connect 1 0 2 1;
#X connect 2 0 3 0;
#X restore 507 137 pd play;
#N canvas 621 616 336 191 play 0;
#X obj 61 26 inlet;
#X obj 61 59 == 1;
#X obj 61 95 spigot;
#X obj 61 127 outlet;
#X connect 0 0 1 0;
#X connect 1 0 2 0;
#X connect 1 0 2 1;
#X connect 2 0 3 0;
#X restore 587 137 pd play;
#N canvas 621 616 336 191 play 0;
#X obj 61 26 inlet;
#X obj 61 59 == 1;
#X obj 61 95 spigot;
#X obj 61 127 outlet;
#X connect 0 0 1 0;
#X connect 1 0 2 0;
#X connect 1 0 2 1;
#X connect 2 0 3 0;
#X restore 667 137 pd play;
#X obj 107 105 tabread a-1;
#X obj 187 105 tabread a-2;
#X obj 267 105 tabread a-3;
#X obj 347 105 tabread a-4;
#X obj 427 105 tabread a-5;
#X obj 507 105 tabread a-6;
#X obj 587 105 tabread a-7;
#X obj 667 105 tabread a-8;
#X connect 1 0 2 0;
#X connect 2 1 12 0;
#X connect 2 1 22 0;
#X connect 2 1 23 0;
#X connect 2 1 24 0;
#X connect 2 1 25 0;
#X connect 2 1 26 0;
#X connect 2 1 27 0;
#X connect 2 1 28 0;
#X connect 2 1 29 0;
#X connect 4 0 3 0;
#X connect 5 0 3 0;
#X connect 6 0 3 0;
#X connect 7 0 3 0;
#X connect 8 0 3 0;
#X connect 9 0 3 0;
#X connect 10 0 3 0;
#X connect 11 0 3 0;
#X connect 12 0 13 0;
#X connect 13 0 4 0;
#X connect 14 0 5 0;
#X connect 15 0 6 0;
#X connect 16 0 7 0;
#X connect 17 0 8 0;
#X connect 18 0 9 0;
#X connect 19 0 10 0;
#X connect 20 0 10 1;
#X connect 21 0 11 0;
#X connect 22 0 14 0;
#X connect 23 0 15 0;
#X connect 24 0 16 0;
#X connect 25 0 17 0;
#X connect 26 0 18 0;
#X connect 27 0 19 0;
#X connect 28 0 20 0;
#X connect 29 0 21 0;
