#N canvas 565 76 766 650 10;
#X msg 280 155 bang;
#X obj 280 320 line~;
#X msg 280 237 1 \$2;
#X obj 356 215 delay \$2;
#X msg 356 261 0 \$3;
#X obj 296 60 inlet;
#X obj 349 77 inlet;
#X obj 247 36 inlet;
#X obj 278 428 outlet~;
#X obj 276 374 pow~ 2;
#X connect 0 0 2 0;
#X connect 0 0 3 0;
#X connect 1 0 9 0;
#X connect 2 0 1 0;
#X connect 3 0 4 0;
#X connect 4 0 1 1;
#X connect 5 0 2 0;
#X connect 5 0 3 1;
#X connect 6 0 4 0;
#X connect 7 0 0 0;
#X connect 9 0 8 0;
