#N canvas 847 602 342 270 10;
#X obj 54 30 r play-instrument-\$1;
#X obj 54 108 spigot;
#X obj 54 140 bng 15 250 50 0 empty empty empty 17 7 0 10 -262144 -1
-1;
#X obj 54 173 outlet;
#X floatatom 176 57 5 0 0 0 - - -;
#X obj 54 68 == 1;
#X connect 0 0 4 0;
#X connect 0 0 5 0;
#X connect 1 0 2 0;
#X connect 2 0 3 0;
#X connect 5 0 1 0;
#X connect 5 0 1 1;
