#N canvas 1 2 1124 494 10;
#X obj 10 -35 cnv 15 1100 420 empty empty empty 20 12 0 14 -228856
-66577 0;
#X obj 10 -96 cnv 15 1100 60 empty empty empty 20 12 0 14 -1 -66577
0;
#X obj 58 -60 nbx 5 14 -1e+037 1e+037 0 0 bpm bpm_init BPM: -36 8 0
15 -262144 -1 -262144 120 256;
#X obj 139 -61 tgl 15 0 bpm_counter bpm_color empty 17 7 0 10 -258699
-1 -1 0 1;
#X obj 22 -82 tgl 15 0 start_stop start_stop_init Play/Pause 17 8 0
15 -262144 -162280 -262144 0 1;
#N canvas 0 549 357 269 internal 1;
#N canvas 725 271 356 300 bpm-counter 0;
#X msg 135 241 color \$1 22;
#X obj 135 274 s bpm_color;
#X obj 162 13 inlet;
#X msg 135 188 13;
#X msg 170 188 20;
#X obj 135 127 % 2;
#X obj 135 156 sel 0 1;
#X obj 135 86 counter;
#X obj 135 47 metro;
#X obj 59 13 r start_stop;
#X connect 0 0 1 0;
#X connect 2 0 8 1;
#X connect 3 0 0 0;
#X connect 4 0 0 0;
#X connect 5 0 6 0;
#X connect 6 0 3 0;
#X connect 6 1 4 0;
#X connect 7 0 5 0;
#X connect 8 0 7 0;
#X connect 9 0 8 0;
#X restore 102 78 pd bpm-counter;
#N canvas 398 232 333 258 bpm-metro 0;
#X obj 108 14 r bpm;
#X obj 108 225 outlet;
#X obj 108 44 t b f;
#X msg 108 81 60000;
#X obj 108 121 /;
#X obj 108 156 int;
#X floatatom 108 192 5 0 0 0 - - -;
#X connect 0 0 2 0;
#X connect 2 0 3 0;
#X connect 2 1 4 1;
#X connect 3 0 4 0;
#X connect 4 0 5 0;
#X connect 5 0 6 0;
#X connect 6 0 1 0;
#X restore 102 7 pd bpm-metro;
#X obj 202 8 loadbang;
#N canvas 663 195 806 177 init 0;
#X obj 376 -10 inlet;
#X msg 39 68 120;
#X obj 39 99 s bpm_init;
#X msg 123 68 0;
#X obj 123 99 s start_stop_init;
#X msg 245 66 0;
#X obj 245 99 s instrument_init;
#X obj 365 100 s time-sig-beat-init;
#X msg 365 66 0;
#X msg 499 66 0;
#X obj 499 100 s time-sig-bass-init;
#X obj 634 99 s load_save_status;
#X obj 634 72 list2symbol;
#X msg 634 47 Ready;
#X connect 0 0 1 0;
#X connect 0 0 3 0;
#X connect 0 0 5 0;
#X connect 0 0 8 0;
#X connect 0 0 9 0;
#X connect 0 0 13 0;
#X connect 1 0 2 0;
#X connect 3 0 4 0;
#X connect 5 0 6 0;
#X connect 8 0 7 0;
#X connect 9 0 10 0;
#X connect 12 0 11 0;
#X connect 13 0 12 0;
#X restore 202 39 pd init;
#X msg 10 105 \; pd dsp \$1;
#X obj 10 74 r start_stop;
#N canvas 955 613 425 229 tick 0;
#X obj 130 22 inlet;
#X obj 205 134 % 64;
#X obj 205 191 s 64-tick-val;
#X obj 205 160 + 1;
#X obj 43 134 % 32;
#X obj 43 160 + 1;
#X obj 43 191 s 32-tick-val;
#X obj 304 32 r time-sig-beat-s;
#N canvas 683 481 354 300 time-signature 0;
#X obj 125 15 inlet;
#X obj -17 15 r start_stop;
#X obj -17 209 metro;
#X obj -17 264 outlet;
#X obj -17 235 counter;
#X obj 152 75 sel 0 1 2 3;
#X obj 73 15 inlet;
#X obj 125 47 t b f;
#X msg 152 98 0.25;
#X msg 168 123 0.5;
#X msg 184 149 1;
#X msg 199 175 1.5;
#X obj 73 192 *;
#X connect 0 0 7 0;
#X connect 1 0 2 0;
#X connect 2 0 4 0;
#X connect 4 0 3 0;
#X connect 5 0 8 0;
#X connect 5 1 9 0;
#X connect 5 2 10 0;
#X connect 5 3 11 0;
#X connect 6 0 12 0;
#X connect 7 0 12 0;
#X connect 7 1 5 0;
#X connect 8 0 12 1;
#X connect 9 0 12 1;
#X connect 10 0 12 1;
#X connect 11 0 12 1;
#X connect 12 0 2 1;
#X restore 205 86 pd time-signature;
#N canvas 683 481 354 300 time-signature 0;
#X obj 125 15 inlet;
#X obj -17 15 r start_stop;
#X obj -17 209 metro;
#X obj -17 264 outlet;
#X obj -17 235 counter;
#X obj 152 75 sel 0 1 2 3;
#X obj 73 15 inlet;
#X obj 125 47 t b f;
#X msg 152 98 0.25;
#X msg 168 123 0.5;
#X msg 184 149 1;
#X msg 199 175 1.5;
#X obj 73 192 *;
#X connect 0 0 7 0;
#X connect 1 0 2 0;
#X connect 2 0 4 0;
#X connect 4 0 3 0;
#X connect 5 0 8 0;
#X connect 5 1 9 0;
#X connect 5 2 10 0;
#X connect 5 3 11 0;
#X connect 6 0 12 0;
#X connect 7 0 12 0;
#X connect 7 1 5 0;
#X connect 8 0 12 1;
#X connect 9 0 12 1;
#X connect 10 0 12 1;
#X connect 11 0 12 1;
#X connect 12 0 2 1;
#X restore 43 83 pd time-signature;
#X obj 142 49 r time-sig-bass-s;
#X connect 0 0 9 0;
#X connect 0 0 8 0;
#X connect 1 0 3 0;
#X connect 3 0 2 0;
#X connect 4 0 5 0;
#X connect 5 0 6 0;
#X connect 7 0 8 1;
#X connect 8 0 1 0;
#X connect 9 0 4 0;
#X connect 10 0 9 1;
#X restore 102 43 pd tick;
#N canvas 267 196 700 474 inst-names 1;
#X obj 240 358 s instrument_name;
#X obj 214 26 r instrument;
#X msg 70 190 kick;
#X obj 240 300 list2symbol;
#X msg 112 190 snare;
#X msg 248 190 clap;
#X msg 288 190 bell;
#X msg 424 190 highat open;
#X msg 326 190 highat closed;
#X msg 507 191 crash;
#X msg 553 191 cym;
#X obj 214 93 sel 0 1 2 3 4 5 6 7 8;
#X msg 155 190 hitom;
#X msg 200 190 lotom;
#X connect 1 0 11 0;
#X connect 2 0 3 0;
#X connect 3 0 0 0;
#X connect 4 0 3 0;
#X connect 5 0 3 0;
#X connect 6 0 3 0;
#X connect 7 0 3 0;
#X connect 8 0 3 0;
#X connect 9 0 3 0;
#X connect 10 0 3 0;
#X connect 11 0 2 0;
#X connect 11 1 4 0;
#X connect 11 2 12 0;
#X connect 11 3 13 0;
#X connect 11 4 5 0;
#X connect 11 5 6 0;
#X connect 11 6 8 0;
#X connect 11 7 7 0;
#X connect 11 8 9 0;
#X connect 11 9 10 0;
#X connect 12 0 3 0;
#X connect 13 0 3 0;
#X restore 10 7 pd inst-names;
#N canvas 908 168 333 106 time-names 0;
#N canvas 1061 278 333 238 sig-names 0;
#X obj 97 15 inlet;
#X obj 97 52 sel 0 1 2 3;
#X obj 107 158 list2symbol;
#X obj 107 199 outlet;
#X msg 52 91 16th;
#X msg 100 91 8th;
#X msg 142 91 Quarter;
#X msg 212 91 Dotted Quarter;
#X connect 0 0 1 0;
#X connect 1 0 4 0;
#X connect 1 1 5 0;
#X connect 1 2 6 0;
#X connect 1 3 7 0;
#X connect 2 0 3 0;
#X connect 4 0 2 0;
#X connect 5 0 2 0;
#X connect 6 0 2 0;
#X connect 7 0 2 0;
#X restore 16 37 pd sig-names;
#X obj 16 67 s time-sig-beat-r;
#X obj 16 9 r time-sig-beat-s;
#N canvas 1061 278 333 238 sig-names 0;
#X obj 97 15 inlet;
#X obj 97 52 sel 0 1 2 3;
#X obj 107 158 list2symbol;
#X obj 107 199 outlet;
#X msg 52 91 16th;
#X msg 100 91 8th;
#X msg 142 91 Quarter;
#X msg 212 91 Dotted Quarter;
#X connect 0 0 1 0;
#X connect 1 0 4 0;
#X connect 1 1 5 0;
#X connect 1 2 6 0;
#X connect 1 3 7 0;
#X connect 2 0 3 0;
#X connect 4 0 2 0;
#X connect 5 0 2 0;
#X connect 6 0 2 0;
#X connect 7 0 2 0;
#X restore 146 37 pd sig-names;
#X obj 146 9 r time-sig-bass-s;
#X obj 146 67 s time-sig-bass-r;
#X connect 0 0 1 0;
#X connect 2 0 0 0;
#X connect 3 0 5 0;
#X connect 4 0 3 0;
#X restore 10 31 pd time-names;
#N canvas 363 555 630 270 mixer-logic 1;
#N canvas 1140 0 755 494 beat-logic 1;
#X obj 17 13 cnv 15 715 300 empty empty empty 20 12 0 14 -162280 -66577
0;
#X obj 309 29 r instrument;
#X obj 27 153 beat-checkbox-group 0;
#X obj 168 153 beat-checkbox-group 1;
#X obj 309 153 beat-checkbox-group 2;
#X obj 450 153 beat-checkbox-group 3;
#X obj 309 73 sel 0 1 2 3 4 5 6 7 8;
#X obj 27 193 beat-checkbox-group 5;
#X obj 591 153 beat-checkbox-group 4;
#X obj 168 193 beat-checkbox-group 6;
#X obj 309 193 beat-checkbox-group 7;
#X obj 450 193 beat-checkbox-group 8;
#X obj 17 238 cnv 15 715 230 empty empty empty 20 12 0 14 -233017 -66577
0;
#N canvas 0 0 931 877 kick 0;
#X obj 41 88 osc~ 200;
#X obj 41 119 *~;
#X obj 107 89 sqrt~;
#X obj 40 31 *~ 15;
#X obj 40 55 +~ 70;
#X obj 40 140 *~ 0.5;
#X msg 105 41 0;
#X obj 41 4 *~;
#X obj 41 -65 t b;
#X msg 69 -64 2;
#X msg 98 -64 800;
#X obj 94 -91 loadbang;
#X obj 41 -37 vead;
#X obj 280 209 vline~;
#X obj 280 230 *~;
#X obj 425 171 noise~;
#X obj 430 304 *~;
#X obj 420 101 t b b;
#X obj 683 211 vline~;
#X obj 707 241 *~;
#X obj 708 261 *~;
#X obj 824 218 switch~;
#X obj 824 198 tgl 15 0 empty empty empty 0 -6 0 10 -262144 -1 -1 0
1;
#X msg 808 177 1;
#X msg 839 177 0;
#X floatatom 839 138 5 0 0 0 - - -;
#X obj 839 156 sel 0;
#X obj 401 68 t b b b;
#X obj 420 507 vline~;
#X obj 380 540 *~;
#X obj 216 270 +~ 20;
#X obj 259 272 +~ 33;
#X obj 301 271 +~ 46;
#X obj 343 271 +~ 59;
#X obj 385 271 +~ 72;
#X obj 298 413 *~ 70;
#X obj 342 414 *~ 80;
#X obj 388 413 *~ 90;
#X obj 436 413 *~ 100;
#X obj 707 283 *~;
#X obj 444 268 lop~ 100;
#X obj 537 328 *~;
#X msg 279 187 11 1 0 \, 0 50 1;
#X obj 281 390 vcf~ 70;
#X obj 213 388 vcf~ 70;
#X obj 253 413 *~ 35;
#X obj 342 390 vcf~ 70;
#X obj 390 390 vcf~ 70;
#X obj 438 390 vcf~ 70;
#X msg 682 190 1 2 0 \, 0 25 2;
#X msg 420 487 1 2 0 \, 0 100 2;
#X text 395 155 noise impulse;
#X text 233 170 frequency descends a bit;
#X text 683 173 impulse envelope;
#X text 766 234 audio computation on/off;
#X text 430 371 formants;
#X obj 466 297 lop~ 300;
#X text 421 521 a final envelope;
#X msg 839 100 1 0 \, 0 120;
#X obj 839 119 line 1 120;
#X obj 404 206 expr~ if ($v1 == 0 \, 0 \, (if ($v1 < 0 \, -1 \, 1)))
;
#X obj 404 226 *~ 0.5;
#X text 476 191 TOTAL DISTORTION;
#X text 885 613 sg 2008;
#X obj 401 36 inlet;
#X obj 380 586 outlet~;
#X connect 0 0 1 0;
#X connect 1 0 5 0;
#X connect 2 0 1 1;
#X connect 3 0 4 0;
#X connect 4 0 0 0;
#X connect 6 0 0 1;
#X connect 7 0 3 0;
#X connect 8 0 6 0;
#X connect 8 0 12 0;
#X connect 9 0 12 1;
#X connect 10 0 12 2;
#X connect 11 0 9 0;
#X connect 11 0 10 0;
#X connect 12 0 2 0;
#X connect 12 0 7 0;
#X connect 12 0 7 1;
#X connect 13 0 14 0;
#X connect 13 0 14 1;
#X connect 14 0 30 0;
#X connect 14 0 31 0;
#X connect 14 0 32 0;
#X connect 14 0 33 0;
#X connect 14 0 34 0;
#X connect 15 0 60 0;
#X connect 16 0 43 0;
#X connect 16 0 44 0;
#X connect 16 0 46 0;
#X connect 16 0 47 0;
#X connect 16 0 48 0;
#X connect 17 0 49 0;
#X connect 17 0 50 0;
#X connect 17 1 42 0;
#X connect 18 0 19 0;
#X connect 18 0 19 1;
#X connect 19 0 20 0;
#X connect 19 0 20 1;
#X connect 20 0 16 0;
#X connect 20 0 39 0;
#X connect 20 0 39 1;
#X connect 22 0 21 0;
#X connect 23 0 22 0;
#X connect 24 0 22 0;
#X connect 25 0 26 0;
#X connect 26 0 24 0;
#X connect 27 0 58 0;
#X connect 27 1 17 0;
#X connect 27 2 23 0;
#X connect 28 0 29 1;
#X connect 29 0 65 0;
#X connect 30 0 44 1;
#X connect 31 0 43 1;
#X connect 32 0 46 1;
#X connect 33 0 47 1;
#X connect 34 0 48 1;
#X connect 35 0 29 0;
#X connect 36 0 29 0;
#X connect 37 0 29 0;
#X connect 38 0 29 0;
#X connect 39 0 41 1;
#X connect 40 0 16 1;
#X connect 40 0 56 0;
#X connect 41 0 65 0;
#X connect 42 0 13 0;
#X connect 43 0 35 0;
#X connect 44 0 45 0;
#X connect 45 0 29 0;
#X connect 46 0 36 0;
#X connect 47 0 37 0;
#X connect 48 0 38 0;
#X connect 49 0 18 0;
#X connect 50 0 28 0;
#X connect 56 0 41 0;
#X connect 58 0 59 0;
#X connect 59 0 25 0;
#X connect 60 0 61 0;
#X connect 61 0 40 0;
#X connect 64 0 27 0;
#X restore 27 298 pd kick;
#X obj 27 266 play-instrument 0;
#X obj 144 266 play-instrument 1;
#X obj 261 266 play-instrument 2;
#X obj 378 266 play-instrument 3;
#N canvas 666 13 855 776 snr 0;
#X obj 453 577 outlet~;
#X obj 483 68 inlet;
#X obj 165 132 noise~;
#X obj 57 87 t b;
#X obj 53 216 osc~;
#X obj 119 338 *~;
#X obj 147 205 *~;
#X obj 132 362 *~;
#X obj 189 330 *~;
#X obj 33 138 *~;
#X obj 87 360 *~;
#X obj 33 163 *~ 12;
#X msg 116 65 bang;
#X obj 126 392 clip~ 0 1;
#X obj 53 239 clip~ -0.8 0.8;
#X obj 185 354 *~ 0.1;
#X obj 127 413 *~ 0.4;
#X obj 73 397 *~ 0.9;
#X obj 165 156 bp~ 3300 0.5;
#X obj 165 180 lop~ 7000;
#X obj 131 466 bp~ 8000 1;
#X obj 92 301 clip~ -0.9 0.9;
#X obj 90 279 *~ 10000;
#X obj 34 192 +~ 150;
#X obj 132 437 *~ 0.35;
#X msg 173 74 1;
#X msg 207 74 300;
#X obj 179 34 loadbang;
#X obj 59 108 vead 1 300;
#X obj 313 331 osc~ 330;
#X obj 374 331 osc~ 180;
#X obj 420 258 vline~;
#X obj 319 257 vline~;
#X obj 315 373 *~;
#X obj 383 373 *~;
#X obj 334 284 *~;
#X obj 419 285 *~;
#X obj 547 353 noise~;
#X obj 542 258 vline~;
#X obj 541 285 *~;
#X obj 643 258 vline~;
#X obj 642 285 *~;
#X obj 527 419 *~;
#X obj 603 458 *~;
#X obj 528 458 *~ 0.5;
#X obj 384 401 *~ 0.75;
#X obj 547 382 lop~ 1000;
#X obj 567 419 hip~ 950;
#X msg 419 238 1 0 0 \, 0 70 0;
#X msg 319 237 1 0 0 \, 0 40 0;
#X msg 541 238 1 0 0 \, 0 50 0;
#X msg 643 238 1 0 0 \, 0 35 0;
#X obj 767 378 switch~;
#X obj 767 358 tgl 15 0 empty empty empty 0 -6 0 10 -262144 -1 -1 0
1;
#X msg 767 315 1;
#X msg 793 315 0;
#X floatatom 793 275 5 0 0 0 - - -;
#X obj 793 293 sel 0;
#X obj 478 135 t b b b;
#X msg 793 231 1 0 \, 0 75;
#X obj 793 253 line 1 75;
#X msg 497 199 bang;
#X text 710 391 audio computation on/off;
#X text 483 221 envelopes;
#X connect 1 0 58 0;
#X connect 2 0 18 0;
#X connect 3 0 28 0;
#X connect 4 0 14 0;
#X connect 5 0 7 0;
#X connect 6 0 7 1;
#X connect 7 0 13 0;
#X connect 8 0 15 0;
#X connect 9 0 10 1;
#X connect 9 0 11 0;
#X connect 10 0 17 0;
#X connect 11 0 23 0;
#X connect 12 0 3 0;
#X connect 13 0 16 0;
#X connect 14 0 10 0;
#X connect 14 0 22 0;
#X connect 15 0 24 0;
#X connect 16 0 24 0;
#X connect 17 0 24 0;
#X connect 18 0 8 0;
#X connect 18 0 19 0;
#X connect 19 0 6 1;
#X connect 21 0 5 0;
#X connect 22 0 21 0;
#X connect 23 0 4 0;
#X connect 24 0 20 0;
#X connect 25 0 28 1;
#X connect 26 0 28 2;
#X connect 27 0 25 0;
#X connect 27 0 26 0;
#X connect 28 0 5 1;
#X connect 28 0 6 0;
#X connect 28 0 9 0;
#X connect 28 0 9 1;
#X connect 28 0 8 1;
#X connect 29 0 33 0;
#X connect 30 0 34 0;
#X connect 31 0 36 0;
#X connect 31 0 36 1;
#X connect 32 0 35 0;
#X connect 32 0 35 1;
#X connect 33 0 0 0;
#X connect 34 0 45 0;
#X connect 35 0 33 1;
#X connect 36 0 34 1;
#X connect 37 0 46 0;
#X connect 38 0 39 0;
#X connect 38 0 39 1;
#X connect 39 0 42 1;
#X connect 40 0 41 0;
#X connect 40 0 41 1;
#X connect 41 0 43 1;
#X connect 42 0 44 0;
#X connect 43 0 0 0;
#X connect 44 0 0 0;
#X connect 45 0 0 0;
#X connect 46 0 42 0;
#X connect 46 0 47 0;
#X connect 47 0 43 0;
#X connect 48 0 31 0;
#X connect 49 0 32 0;
#X connect 50 0 38 0;
#X connect 51 0 40 0;
#X connect 53 0 52 0;
#X connect 54 0 53 0;
#X connect 55 0 53 0;
#X connect 56 0 57 0;
#X connect 57 0 55 0;
#X connect 58 0 59 0;
#X connect 58 1 61 0;
#X connect 58 2 54 0;
#X connect 59 0 60 0;
#X connect 60 0 56 0;
#X connect 61 0 49 0;
#X connect 61 0 48 0;
#X connect 61 0 50 0;
#X connect 61 0 51 0;
#X restore 144 298 pd snr;
#N canvas 0 0 450 300 bongoh 0;
#X obj 143 93 noise~;
#X obj 194 120 clip~ -0.9 0.9;
#X obj 102 68 inlet;
#X obj 102 97 t b;
#X obj 187 185 *~;
#X obj 195 93 *~ 20;
#X obj 187 227 outlet~;
#X obj 194 144 bp~ 600 25;
#X obj 195 66 osc~ 660;
#X obj 103 142 ead~ 3 120;
#X obj 186 205 *~ 0.7;
#X connect 0 0 1 0;
#X connect 1 0 7 0;
#X connect 2 0 3 0;
#X connect 3 0 9 0;
#X connect 4 0 10 0;
#X connect 5 0 1 0;
#X connect 7 0 4 1;
#X connect 8 0 5 0;
#X connect 9 0 4 0;
#X connect 10 0 6 0;
#X restore 261 299 pd bongoh;
#N canvas 0 0 450 300 bongol 0;
#X obj 143 93 noise~;
#X obj 195 66 osc~ 420;
#X obj 194 120 clip~ -0.9 0.9;
#X obj 102 68 inlet;
#X obj 102 97 t b;
#X obj 187 185 *~;
#X obj 103 142 ead~ 3 150;
#X obj 195 93 *~ 20;
#X obj 194 144 bp~ 400 25;
#X obj 187 227 outlet~;
#X obj 187 206 *~ 0.6;
#X connect 0 0 2 0;
#X connect 1 0 7 0;
#X connect 2 0 8 0;
#X connect 3 0 4 0;
#X connect 4 0 6 0;
#X connect 5 0 10 0;
#X connect 6 0 5 0;
#X connect 7 0 2 0;
#X connect 8 0 5 1;
#X connect 10 0 9 0;
#X restore 378 299 pd bongol;
#X obj 495 266 play-instrument 4;
#N canvas 0 0 518 471 clap 0;
#X obj 189 66 noise~;
#X obj 336 325 *~;
#X obj 151 310 *~;
#X obj 167 250 *~ 0.8;
#X obj 148 343 *~ 0.2;
#X obj 169 284 ead~ 1 800;
#X obj 376 145 del 30;
#X obj 377 165 del 20;
#X obj 378 185 del 15;
#X obj 376 206 del 10;
#X obj 63 217 *~ 0.1;
#X obj 85 147 bp~ 1300 10;
#X obj 253 147 bp~ 700 10;
#X obj 175 147 bp~ 2500 4;
#X obj 336 369 bp~ 2700 2;
#X obj 336 292 ead~ 3 50;
#X obj 3 147 lop~ 8000;
#X obj 188 106 hip~ 300;
#X obj 322 11 inlet;
#X obj 322 40 t b;
#X obj 339 415 outlet~;
#X obj 339 390 *~ 0.7;
#X connect 0 0 16 0;
#X connect 0 0 17 0;
#X connect 1 0 14 0;
#X connect 2 0 1 1;
#X connect 2 0 4 0;
#X connect 3 0 2 1;
#X connect 4 0 14 0;
#X connect 5 0 2 0;
#X connect 6 0 7 0;
#X connect 6 0 15 0;
#X connect 7 0 8 0;
#X connect 7 0 15 0;
#X connect 8 0 9 0;
#X connect 8 0 15 0;
#X connect 9 0 15 0;
#X connect 10 0 3 0;
#X connect 11 0 3 0;
#X connect 12 0 3 0;
#X connect 13 0 3 0;
#X connect 14 0 21 0;
#X connect 15 0 1 0;
#X connect 16 0 10 0;
#X connect 17 0 11 0;
#X connect 17 0 12 0;
#X connect 17 0 13 0;
#X connect 18 0 19 0;
#X connect 19 0 5 0;
#X connect 19 0 15 0;
#X connect 19 0 6 0;
#X connect 21 0 20 0;
#X restore 495 300 pd clap;
#X obj 612 266 play-instrument 5;
#N canvas 0 0 575 582 bell 0;
#X obj 155 103 wrap~;
#X obj 138 76 -~ 0.5;
#X obj 154 127 -~ 0.5;
#X obj 138 153 -~;
#X obj 172 278 wrap~;
#X obj 155 255 -~ 0.5;
#X obj 171 303 -~ 0.5;
#X obj 155 327 -~;
#X obj 138 350 *~;
#X obj 96 442 outlet~;
#X obj 154 232 phasor~;
#X obj 228 32 t b;
#X obj 218 7 inlet;
#X obj 96 386 *~;
#X obj 56 103 wrap~;
#X obj 39 76 -~ 0.5;
#X obj 55 127 -~ 0.5;
#X obj 39 153 -~;
#X obj 73 278 wrap~;
#X obj 56 255 -~ 0.5;
#X obj 72 303 -~ 0.5;
#X obj 56 327 -~;
#X obj 39 350 *~;
#X obj 55 232 phasor~;
#X obj 39 53 phasor~ 2139;
#X obj 138 53 phasor~ 441;
#X obj 60 29 *~ 1.33;
#X obj 154 179 *~ 1000;
#X obj 55 179 *~ 1000;
#X obj 228 57 ead~ 1 300;
#X obj 95 407 *~ 0.25;
#X obj 101 10 sig~ 881;
#X obj 54 207 +~ 1763;
#X obj 153 207 +~ 884;
#X connect 0 0 2 0;
#X connect 1 0 0 0;
#X connect 1 0 3 0;
#X connect 2 0 3 1;
#X connect 3 0 8 0;
#X connect 3 0 27 0;
#X connect 4 0 6 0;
#X connect 5 0 4 0;
#X connect 5 0 7 0;
#X connect 6 0 7 1;
#X connect 7 0 8 1;
#X connect 8 0 13 0;
#X connect 10 0 5 0;
#X connect 11 0 29 0;
#X connect 12 0 11 0;
#X connect 13 0 30 0;
#X connect 14 0 16 0;
#X connect 15 0 14 0;
#X connect 15 0 17 0;
#X connect 16 0 17 1;
#X connect 17 0 22 0;
#X connect 17 0 28 0;
#X connect 18 0 20 0;
#X connect 19 0 18 0;
#X connect 19 0 21 0;
#X connect 20 0 21 1;
#X connect 21 0 22 1;
#X connect 22 0 13 0;
#X connect 23 0 19 0;
#X connect 24 0 15 0;
#X connect 25 0 1 0;
#X connect 26 0 24 0;
#X connect 27 0 33 0;
#X connect 28 0 32 0;
#X connect 29 0 13 1;
#X connect 30 0 9 0;
#X connect 31 0 25 0;
#X connect 31 0 26 0;
#X connect 32 0 23 0;
#X connect 33 0 10 0;
#X restore 612 300 pd bell;
#X obj 379 434 outlet~;
#X obj 198 337 play-instrument 6;
#X obj 315 337 play-instrument 7;
#X obj 432 337 play-instrument 8;
#N canvas 0 0 722 561 hat 0;
#X obj 140 26 inlet;
#X obj 140 51 t b;
#X obj 202 400 outlet~;
#X obj 83 181 *~;
#X obj 230 183 *~;
#X obj 150 213 *~;
#X obj 139 265 +~;
#X obj 150 300 osc~ 5435;
#X obj 150 236 *~ 12000;
#X obj 23 144 osc~ 6221;
#X obj 248 142 osc~ 2441;
#X obj 228 235 noise~;
#X obj 180 328 +~;
#X obj 230 299 clip~ -0.7 0.7;
#X obj 180 354 *~;
#X obj 235 352 *~;
#X obj 157 107 ead~ 2 100;
#X obj 245 373 *~ 0.06;
#X obj 177 374 *~ 0.06;
#X obj 78 238 sig~ 7435;
#X obj 228 256 bp~ 12000 12;
#X obj 172 143 osc~ 3283;
#X obj 98 144 osc~ 4109;
#X obj 139 79 ead~ 2 200;
#X obj 245 101 sqrt~;
#X obj 246 77 ead~ 2 800;
#X obj 226 25 inlet;
#X obj 227 51 t b;
#X connect 0 0 1 0;
#X connect 1 0 16 0;
#X connect 1 0 23 0;
#X connect 3 0 5 0;
#X connect 4 0 5 1;
#X connect 5 0 8 0;
#X connect 6 0 7 0;
#X connect 7 0 12 0;
#X connect 8 0 6 1;
#X connect 9 0 3 0;
#X connect 10 0 4 1;
#X connect 11 0 20 0;
#X connect 12 0 14 0;
#X connect 12 0 15 0;
#X connect 13 0 12 1;
#X connect 14 0 18 0;
#X connect 15 0 17 0;
#X connect 16 0 15 1;
#X connect 17 0 2 0;
#X connect 18 0 2 0;
#X connect 19 0 6 0;
#X connect 20 0 13 0;
#X connect 21 0 4 0;
#X connect 22 0 3 1;
#X connect 23 0 14 1;
#X connect 24 0 14 1;
#X connect 25 0 24 0;
#X connect 26 0 27 0;
#X connect 27 0 25 0;
#X connect 27 0 16 0;
#X restore 255 374 pd hat;
#N canvas 0 0 722 561 crash 0;
#X obj 415 47 inlet;
#X obj 415 72 t b;
#X obj 205 454 outlet~;
#X obj 83 181 *~;
#X obj 230 183 *~;
#X obj 150 213 *~;
#X obj 139 265 +~;
#X obj 138 288 osc~ 5435;
#X obj 78 238 sig~ 3435;
#X obj 150 236 *~ 12000;
#X obj 248 142 osc~ 2441;
#X obj 228 235 noise~;
#X obj 180 354 *~;
#X obj 235 352 *~;
#X obj 23 144 osc~ 12221;
#X obj 100 144 osc~ 8309;
#X obj 172 143 osc~ 2383;
#X obj 228 278 clip~ -0.9 0.9;
#X obj 347 229 noise~;
#X obj 347 272 clip~ -0.9 0.9;
#X obj 228 256 bp~ 8000 4;
#X obj 414 100 ead~ 2 5000;
#X obj 142 319 *~;
#X obj 307 99 ead~ 4000 3000;
#X obj 245 373 *~ 0.2;
#X obj 320 349 *~;
#X obj 529 97 ead~ 1 200;
#X obj 432 128 ead~ 300 7000;
#X obj 177 374 *~ 0.2;
#X obj 348 377 *~ 0.4;
#X obj 346 250 bp~ 4000 7;
#X obj 204 433 *~ 0.8;
#X connect 0 0 1 0;
#X connect 1 0 21 0;
#X connect 1 0 23 0;
#X connect 1 0 26 0;
#X connect 1 0 27 0;
#X connect 3 0 5 0;
#X connect 4 0 5 1;
#X connect 5 0 9 0;
#X connect 6 0 7 0;
#X connect 7 0 22 0;
#X connect 8 0 6 0;
#X connect 9 0 6 1;
#X connect 10 0 4 1;
#X connect 11 0 20 0;
#X connect 12 0 28 0;
#X connect 13 0 24 0;
#X connect 14 0 3 0;
#X connect 15 0 3 1;
#X connect 16 0 4 0;
#X connect 17 0 12 0;
#X connect 18 0 30 0;
#X connect 19 0 13 0;
#X connect 19 0 25 0;
#X connect 20 0 17 0;
#X connect 21 0 12 1;
#X connect 22 0 12 0;
#X connect 22 0 25 0;
#X connect 23 0 22 1;
#X connect 24 0 31 0;
#X connect 25 0 29 0;
#X connect 26 0 25 1;
#X connect 27 0 13 1;
#X connect 28 0 31 0;
#X connect 29 0 31 0;
#X connect 30 0 19 0;
#X connect 31 0 2 0;
#X restore 432 374 pd crash;
#X connect 1 0 6 0;
#X connect 6 0 2 0;
#X connect 6 1 3 0;
#X connect 6 2 4 0;
#X connect 6 3 5 0;
#X connect 6 4 8 0;
#X connect 6 5 7 0;
#X connect 6 6 9 0;
#X connect 6 7 10 0;
#X connect 6 8 11 0;
#X connect 13 0 25 0;
#X connect 14 0 13 0;
#X connect 15 0 18 0;
#X connect 16 0 19 0;
#X connect 17 0 20 0;
#X connect 18 0 25 0;
#X connect 19 0 25 0;
#X connect 20 0 25 0;
#X connect 21 0 22 0;
#X connect 22 0 25 0;
#X connect 23 0 24 0;
#X connect 24 0 25 0;
#X connect 26 0 29 0;
#X connect 27 0 29 1;
#X connect 28 0 30 0;
#X connect 29 0 25 0;
#X connect 30 0 25 0;
#X restore 33 -170 pd beat-logic;
#X obj 224 -24 *~;
#X obj 294 -41 r master-volume-s;
#X obj 118 -7 pvu~;
#X obj 211 23 dac~;
#X obj 118 39 s volume-left;
#X obj 298 -7 pvu~;
#X obj 298 39 s volume-right;
#X obj 124 -170 r beats-volume-s;
#X obj 109 -126 *~;
#X obj 108 -96 pvu~;
#X obj 21 -79 s beats-vu;
#X obj 340 -126 *~;
#X obj 339 -96 pvu~;
#X obj 355 -170 r bass-volume-s;
#X obj 382 -79 s bass-vu;
#N canvas 1021 331 729 569 bass-logic 0;
#X obj 7 7 cnv 15 715 300 empty empty empty 20 12 0 14 -162280 -66577
0;
#X obj 7 262 cnv 15 715 300 empty empty empty 20 12 0 14 -233017 -66577
0;
#X obj 322 462 outlet~;
#X obj 300 274 r play-bass;
#X obj 300 309 sel 0 1 2 3 4 5 6 7;
#X floatatom 436 291 5 0 0 0 - - -;
#N canvas 410 196 214 466 bass 0;
#X obj 39 230 osc~ 200;
#X obj 39 261 *~;
#X obj 105 231 sqrt~;
#X obj 38 282 *~ 0.5;
#X msg 101 195 0;
#X obj 39 116 *~;
#X obj 39 22 inlet;
#X obj 39 47 t b;
#X obj 37 304 outlet~;
#X obj 65 110 loadbang;
#X obj 65 138 int \$1;
#X obj 39 75 ead~ 100 600;
#X obj 38 197 +~;
#X floatatom 65 170 5 0 0 0 - - -;
#X connect 0 0 1 0;
#X connect 1 0 3 0;
#X connect 2 0 1 1;
#X connect 3 0 8 0;
#X connect 4 0 0 1;
#X connect 5 0 12 0;
#X connect 6 0 7 0;
#X connect 7 0 4 0;
#X connect 7 0 11 0;
#X connect 9 0 10 0;
#X connect 10 0 13 0;
#X connect 11 0 2 0;
#X connect 11 0 5 0;
#X connect 11 0 5 1;
#X connect 12 0 0 0;
#X connect 13 0 12 1;
#X restore 602 376 pd bass 50;
#N canvas 410 196 214 485 bass 0;
#X obj 39 230 osc~ 200;
#X obj 39 261 *~;
#X obj 105 231 sqrt~;
#X obj 38 282 *~ 0.5;
#X msg 101 195 0;
#X obj 39 116 *~;
#X obj 39 22 inlet;
#X obj 39 47 t b;
#X obj 37 304 outlet~;
#X obj 65 110 loadbang;
#X obj 65 138 int \$1;
#X obj 39 75 ead~ 100 600;
#X obj 38 197 +~;
#X floatatom 65 170 5 0 0 0 - - -;
#X connect 0 0 1 0;
#X connect 1 0 3 0;
#X connect 2 0 1 1;
#X connect 3 0 8 0;
#X connect 4 0 0 1;
#X connect 5 0 12 0;
#X connect 6 0 7 0;
#X connect 7 0 4 0;
#X connect 7 0 11 0;
#X connect 9 0 10 0;
#X connect 10 0 13 0;
#X connect 11 0 2 0;
#X connect 11 0 5 0;
#X connect 11 0 5 1;
#X connect 12 0 0 0;
#X connect 13 0 12 1;
#X restore 522 376 pd bass 60;
#N canvas 410 196 214 485 bass 0;
#X obj 39 230 osc~ 200;
#X obj 39 261 *~;
#X obj 105 231 sqrt~;
#X obj 38 282 *~ 0.5;
#X msg 101 195 0;
#X obj 39 116 *~;
#X obj 39 22 inlet;
#X obj 39 47 t b;
#X obj 37 304 outlet~;
#X obj 65 110 loadbang;
#X obj 65 138 int \$1;
#X obj 39 75 ead~ 100 600;
#X obj 38 197 +~;
#X floatatom 65 170 5 0 0 0 - - -;
#X connect 0 0 1 0;
#X connect 1 0 3 0;
#X connect 2 0 1 1;
#X connect 3 0 8 0;
#X connect 4 0 0 1;
#X connect 5 0 12 0;
#X connect 6 0 7 0;
#X connect 7 0 4 0;
#X connect 7 0 11 0;
#X connect 9 0 10 0;
#X connect 10 0 13 0;
#X connect 11 0 2 0;
#X connect 11 0 5 0;
#X connect 11 0 5 1;
#X connect 12 0 0 0;
#X connect 13 0 12 1;
#X restore 442 376 pd bass 70;
#N canvas 410 196 214 466 bass 0;
#X obj 39 230 osc~ 200;
#X obj 39 261 *~;
#X obj 105 231 sqrt~;
#X obj 38 282 *~ 0.5;
#X msg 101 195 0;
#X obj 39 116 *~;
#X obj 39 22 inlet;
#X obj 39 47 t b;
#X obj 37 304 outlet~;
#X obj 65 110 loadbang;
#X obj 65 138 int \$1;
#X obj 39 75 ead~ 100 600;
#X obj 38 197 +~;
#X floatatom 65 170 5 0 0 0 - - -;
#X connect 0 0 1 0;
#X connect 1 0 3 0;
#X connect 2 0 1 1;
#X connect 3 0 8 0;
#X connect 4 0 0 1;
#X connect 5 0 12 0;
#X connect 6 0 7 0;
#X connect 7 0 4 0;
#X connect 7 0 11 0;
#X connect 9 0 10 0;
#X connect 10 0 13 0;
#X connect 11 0 2 0;
#X connect 11 0 5 0;
#X connect 11 0 5 1;
#X connect 12 0 0 0;
#X connect 13 0 12 1;
#X restore 362 375 pd bass 80;
#N canvas 410 196 214 466 bass 0;
#X obj 39 230 osc~ 200;
#X obj 39 261 *~;
#X obj 105 231 sqrt~;
#X obj 38 282 *~ 0.5;
#X msg 101 195 0;
#X obj 39 116 *~;
#X obj 39 22 inlet;
#X obj 39 47 t b;
#X obj 37 304 outlet~;
#X obj 65 110 loadbang;
#X obj 65 138 int \$1;
#X obj 39 75 ead~ 100 600;
#X obj 38 197 +~;
#X floatatom 65 170 5 0 0 0 - - -;
#X connect 0 0 1 0;
#X connect 1 0 3 0;
#X connect 2 0 1 1;
#X connect 3 0 8 0;
#X connect 4 0 0 1;
#X connect 5 0 12 0;
#X connect 6 0 7 0;
#X connect 7 0 4 0;
#X connect 7 0 11 0;
#X connect 9 0 10 0;
#X connect 10 0 13 0;
#X connect 11 0 2 0;
#X connect 11 0 5 0;
#X connect 11 0 5 1;
#X connect 12 0 0 0;
#X connect 13 0 12 1;
#X restore 282 376 pd bass 90;
#N canvas 410 196 214 485 bass 0;
#X obj 39 230 osc~ 200;
#X obj 39 261 *~;
#X obj 105 231 sqrt~;
#X obj 38 282 *~ 0.5;
#X msg 101 195 0;
#X obj 39 116 *~;
#X obj 39 22 inlet;
#X obj 39 47 t b;
#X obj 37 304 outlet~;
#X obj 65 110 loadbang;
#X obj 65 138 int \$1;
#X obj 39 75 ead~ 100 600;
#X obj 38 197 +~;
#X floatatom 65 170 5 0 0 0 - - -;
#X connect 0 0 1 0;
#X connect 1 0 3 0;
#X connect 2 0 1 1;
#X connect 3 0 8 0;
#X connect 4 0 0 1;
#X connect 5 0 12 0;
#X connect 6 0 7 0;
#X connect 7 0 4 0;
#X connect 7 0 11 0;
#X connect 9 0 10 0;
#X connect 10 0 13 0;
#X connect 11 0 2 0;
#X connect 11 0 5 0;
#X connect 11 0 5 1;
#X connect 12 0 0 0;
#X connect 13 0 12 1;
#X restore 202 376 pd bass 100;
#N canvas 410 196 214 485 bass 0;
#X obj 39 230 osc~ 200;
#X obj 39 261 *~;
#X obj 105 231 sqrt~;
#X obj 38 282 *~ 0.5;
#X msg 101 195 0;
#X obj 39 116 *~;
#X obj 39 22 inlet;
#X obj 39 47 t b;
#X obj 37 304 outlet~;
#X obj 65 110 loadbang;
#X obj 65 138 int \$1;
#X obj 39 75 ead~ 100 600;
#X obj 38 197 +~;
#X floatatom 65 170 5 0 0 0 - - -;
#X connect 0 0 1 0;
#X connect 1 0 3 0;
#X connect 2 0 1 1;
#X connect 3 0 8 0;
#X connect 4 0 0 1;
#X connect 5 0 12 0;
#X connect 6 0 7 0;
#X connect 7 0 4 0;
#X connect 7 0 11 0;
#X connect 9 0 10 0;
#X connect 10 0 13 0;
#X connect 11 0 2 0;
#X connect 11 0 5 0;
#X connect 11 0 5 1;
#X connect 12 0 0 0;
#X connect 13 0 12 1;
#X restore 122 376 pd bass 110;
#N canvas 410 196 214 466 bass 0;
#X obj 39 230 osc~ 200;
#X obj 39 261 *~;
#X obj 105 231 sqrt~;
#X obj 38 282 *~ 0.5;
#X msg 101 195 0;
#X obj 39 116 *~;
#X obj 39 22 inlet;
#X obj 39 47 t b;
#X obj 37 304 outlet~;
#X obj 65 110 loadbang;
#X obj 65 138 int \$1;
#X obj 39 75 ead~ 100 600;
#X obj 38 197 +~;
#X floatatom 65 170 5 0 0 0 - - -;
#X connect 0 0 1 0;
#X connect 1 0 3 0;
#X connect 2 0 1 1;
#X connect 3 0 8 0;
#X connect 4 0 0 1;
#X connect 5 0 12 0;
#X connect 6 0 7 0;
#X connect 7 0 4 0;
#X connect 7 0 11 0;
#X connect 9 0 10 0;
#X connect 10 0 13 0;
#X connect 11 0 2 0;
#X connect 11 0 5 0;
#X connect 11 0 5 1;
#X connect 12 0 0 0;
#X connect 13 0 12 1;
#X restore 42 375 pd bass 120;
#X obj 53 69 bass-radio 1;
#X obj 143 69 bass-radio 2;
#X obj 323 69 bass-radio 4;
#X obj 413 69 bass-radio 5;
#X obj 503 69 bass-radio 6;
#X obj 593 69 bass-radio 7;
#X obj 53 99 bass-radio 8;
#X obj 143 99 bass-radio 9;
#X obj 233 99 bass-radio 10;
#X obj 323 99 bass-radio 11;
#X obj 413 99 bass-radio 12;
#X obj 503 99 bass-radio 13;
#X obj 593 99 bass-radio 14;
#X obj 53 129 bass-radio 15;
#X obj 143 129 bass-radio 16;
#X obj 233 129 bass-radio 17;
#X obj 323 129 bass-radio 18;
#X obj 413 129 bass-radio 19;
#X obj 503 129 bass-radio 20;
#X obj 593 129 bass-radio 21;
#X obj 53 159 bass-radio 22;
#X obj 143 159 bass-radio 23;
#X obj 233 159 bass-radio 24;
#X obj 323 159 bass-radio 25;
#X obj 413 159 bass-radio 26;
#X obj 503 159 bass-radio 27;
#X obj 593 159 bass-radio 28;
#X obj 163 189 bass-radio 29;
#X obj 253 189 bass-radio 30;
#X obj 343 189 bass-radio 31;
#X obj 433 189 bass-radio 32;
#X obj 233 69 bass-radio 3;
#X connect 3 0 4 0;
#X connect 3 0 5 0;
#X connect 4 0 13 0;
#X connect 4 1 12 0;
#X connect 4 2 11 0;
#X connect 4 3 10 0;
#X connect 4 4 9 0;
#X connect 4 5 8 0;
#X connect 4 6 7 0;
#X connect 4 7 6 0;
#X connect 6 0 2 0;
#X connect 7 0 2 0;
#X connect 8 0 2 0;
#X connect 9 0 2 0;
#X connect 10 0 2 0;
#X connect 11 0 2 0;
#X connect 12 0 2 0;
#X connect 13 0 2 0;
#X restore 524 -130 pd bass-logic;
#N canvas 1021 331 729 569 bass-logic-80s 0;
#X obj 7 7 cnv 15 715 300 empty empty empty 20 12 0 14 -162280 -66577
0;
#X obj 7 262 cnv 15 715 300 empty empty empty 20 12 0 14 -233017 -66577
0;
#X obj 322 462 outlet~;
#X obj 300 274 r play-bass;
#X obj 300 309 sel 0 1 2 3 4 5 6 7;
#X floatatom 436 291 5 0 0 0 - - -;
#X obj 602 376 80s-bass 50;
#X obj 42 376 80s-bass 120;
#X obj 122 376 80s-bass 110;
#X obj 202 376 80s-bass 100;
#X obj 525 376 80s-bass 60;
#X obj 442 376 80s-bass 70;
#X obj 362 376 80s-bass 80;
#X obj 282 376 80s-bass 90;
#X obj 53 69 bass-radio 1;
#X obj 143 69 bass-radio 2;
#X obj 323 69 bass-radio 4;
#X obj 413 69 bass-radio 5;
#X obj 503 69 bass-radio 6;
#X obj 593 69 bass-radio 7;
#X obj 53 99 bass-radio 8;
#X obj 143 99 bass-radio 9;
#X obj 233 99 bass-radio 10;
#X obj 323 99 bass-radio 11;
#X obj 413 99 bass-radio 12;
#X obj 503 99 bass-radio 13;
#X obj 593 99 bass-radio 14;
#X obj 53 129 bass-radio 15;
#X obj 143 129 bass-radio 16;
#X obj 233 129 bass-radio 17;
#X obj 323 129 bass-radio 18;
#X obj 413 129 bass-radio 19;
#X obj 503 129 bass-radio 20;
#X obj 593 129 bass-radio 21;
#X obj 53 159 bass-radio 22;
#X obj 143 159 bass-radio 23;
#X obj 233 159 bass-radio 24;
#X obj 323 159 bass-radio 25;
#X obj 413 159 bass-radio 26;
#X obj 503 159 bass-radio 27;
#X obj 593 159 bass-radio 28;
#X obj 163 189 bass-radio 29;
#X obj 253 189 bass-radio 30;
#X obj 343 189 bass-radio 31;
#X obj 433 189 bass-radio 32;
#X obj 233 69 bass-radio 3;
#X connect 3 0 4 0;
#X connect 3 0 5 0;
#X connect 4 0 7 0;
#X connect 4 1 8 0;
#X connect 4 2 9 0;
#X connect 4 3 13 0;
#X connect 4 4 12 0;
#X connect 4 5 11 0;
#X connect 4 6 10 0;
#X connect 4 7 6 0;
#X connect 6 0 2 0;
#X connect 7 0 2 0;
#X connect 8 0 2 0;
#X connect 9 0 2 0;
#X connect 10 0 2 0;
#X connect 11 0 2 0;
#X connect 12 0 2 0;
#X connect 13 0 2 0;
#X restore 520 -95 pd bass-logic-80s;
#N canvas 588 106 752 587 bass-logic-v2 0;
#X obj 17 17 cnv 15 715 300 empty empty empty 20 12 0 14 -162280 -66577
0;
#X obj 17 272 cnv 15 715 300 empty empty empty 20 12 0 14 -233017 -66577
0;
#X obj 332 472 outlet~;
#X obj 310 284 r play-bass;
#X obj 310 319 sel 0 1 2 3 4 5 6 7;
#X floatatom 446 301 5 0 0 0 - - -;
#X obj 63 79 bass-radio 1;
#X obj 153 79 bass-radio 2;
#X obj 333 79 bass-radio 4;
#X obj 423 79 bass-radio 5;
#X obj 513 79 bass-radio 6;
#X obj 603 79 bass-radio 7;
#X obj 63 109 bass-radio 8;
#X obj 153 109 bass-radio 9;
#X obj 243 109 bass-radio 10;
#X obj 333 109 bass-radio 11;
#X obj 423 109 bass-radio 12;
#X obj 513 109 bass-radio 13;
#X obj 603 109 bass-radio 14;
#X obj 63 139 bass-radio 15;
#X obj 153 139 bass-radio 16;
#X obj 243 139 bass-radio 17;
#X obj 333 139 bass-radio 18;
#X obj 423 139 bass-radio 19;
#X obj 513 139 bass-radio 20;
#X obj 603 139 bass-radio 21;
#X obj 63 169 bass-radio 22;
#X obj 153 169 bass-radio 23;
#X obj 243 169 bass-radio 24;
#X obj 333 169 bass-radio 25;
#X obj 423 169 bass-radio 26;
#X obj 513 169 bass-radio 27;
#X obj 603 169 bass-radio 28;
#X obj 173 199 bass-radio 29;
#X obj 263 199 bass-radio 30;
#X obj 353 199 bass-radio 31;
#X obj 443 199 bass-radio 32;
#X obj 243 79 bass-radio 3;
#N canvas 1118 353 384 361 karplus-bass 0;
#X obj 90 12 vsl 15 128 0.5 0.989 0 0 empty leadmuting empty 0 -8 0
10 -262144 -1 -1 12700 1;
#X floatatom 90 149 5 0 0 0 - - -;
#X text 78 160 mute strings;
#N canvas 556 480 491 311 stringunit 0;
#N canvas 0 25 801 658 delay-writer 0;
#X obj 86 220 inlet~;
#X obj 252 739 outlet~;
#X obj 277 455 +~;
#X obj 134 220 inlet;
#X obj 398 319 hip~ 5;
#X obj 400 406 *~ 3;
#X obj 398 299 lop~ 1000;
#X obj 398 280 *~ 0.015;
#X obj 135 376 hip~ 5;
#X obj 136 412 clip~ -1 1;
#X obj 400 431 clip~ -1 1;
#X obj 137 630 *~ 0.11;
#X obj 401 630 *~ 400;
#X obj 256 220 inlet muting;
#X obj 392 197 block~ 1;
#X obj 253 698 *~ 1;
#X text 44 358 string;
#X text 454 487 it recirculates;
#X text 484 630 output mostly comes from the body;
#X text 488 277 much more energy passed to string than to body;
#X text 649 356 body formant;
#X obj 134 252 delread~ \$0-stringdel1;
#X obj 276 487 delwrite~ \$0-stringdel1 1000;
#X obj 135 313 *~ 0.989;
#X obj 135 343 lop~ 1000;
#X obj 319 359 bp~ 357 50;
#X obj 399 357 bp~ 582 50;
#X obj 477 357 bp~ 721 50;
#X obj 562 358 bp~ 943 50;
#X obj 241 359 bp~ 205 50;
#X connect 0 0 23 0;
#X connect 2 0 22 0;
#X connect 3 0 21 0;
#X connect 4 0 25 0;
#X connect 4 0 26 0;
#X connect 4 0 27 0;
#X connect 4 0 28 0;
#X connect 4 0 29 0;
#X connect 5 0 10 0;
#X connect 6 0 4 0;
#X connect 7 0 6 0;
#X connect 8 0 9 0;
#X connect 9 0 11 0;
#X connect 9 0 2 0;
#X connect 10 0 2 1;
#X connect 10 0 12 0;
#X connect 11 0 15 0;
#X connect 12 0 15 0;
#X connect 13 0 23 1;
#X connect 15 0 1 0;
#X connect 21 0 7 0;
#X connect 21 0 23 0;
#X connect 23 0 24 0;
#X connect 24 0 8 0;
#X connect 25 0 5 0;
#X connect 26 0 5 0;
#X connect 27 0 5 0;
#X connect 28 0 5 0;
#X connect 29 0 5 0;
#X restore 149 246 pd delay-writer;
#X obj 192 219 expr 1000/$f1;
#N canvas 352 308 371 300 gopluckyourself 0;
#X obj -30 199 *~;
#X obj -107 105 hip~ 5;
#X obj -11 97 vline~;
#X obj -16 122 *~;
#X msg -11 76 1 1 0 \, 0 9 1;
#X obj 40 -33 inlet bang;
#X obj -29 222 outlet~;
#X obj 94 205 switch~;
#X obj 94 186 tgl 15 0 empty empty empty 0 -6 0 10 -262144 -1 -1 0
1;
#X msg 79 152 1;
#X msg 110 152 0;
#X floatatom 110 114 5 0 0 0 - - -;
#X obj 110 132 sel 0;
#X obj 40 -11 t b b b;
#X obj -107 85 lop~ 12000;
#X obj -107 65 clip~ -0.3 0.3;
#X obj -137 -9 noise~;
#X obj -138 17 expr~ if ($v1 == 0 \, 0 \, (if ($v1 < 0 \, -1 \, 1)))
;
#X text -91 0 TOTAL DISTORTION;
#X msg 110 76 1 0 \, 0 15;
#X obj 110 95 line 1 15;
#X connect 0 0 6 0;
#X connect 1 0 0 0;
#X connect 2 0 3 0;
#X connect 2 0 3 1;
#X connect 3 0 0 1;
#X connect 4 0 2 0;
#X connect 5 0 13 0;
#X connect 8 0 7 0;
#X connect 9 0 8 0;
#X connect 10 0 8 0;
#X connect 11 0 12 0;
#X connect 12 0 10 0;
#X connect 13 0 19 0;
#X connect 13 1 4 0;
#X connect 13 2 9 0;
#X connect 14 0 1 0;
#X connect 15 0 14 0;
#X connect 16 0 17 0;
#X connect 17 0 15 0;
#X connect 19 0 20 0;
#X connect 20 0 11 0;
#X restore 195 154 pd gopluckyourself;
#X obj 93 5 inlet note;
#X obj 150 282 outlet~;
#X obj 236 5 inlet muting;
#X obj 19 231 tgl 15 0 empty empty empty 0 -6 0 10 -262144 -1 -1 0
1;
#X msg 4 197 1;
#X msg 35 197 0;
#X floatatom 36 162 5 0 0 0 - - -;
#X obj 35 178 sel 0;
#X obj 19 251 switch~ 16;
#X msg 36 124 1 0 \, 0 15000;
#X obj 36 143 line 1 15000;
#X floatatom 93 29 5 0 0 0 - - -;
#N canvas 434 186 1016 656 pick-position 0;
#X obj 81 21 inlet~;
#X obj 80 267 outlet~;
#X obj 171 20 inlet position;
#X obj 81 216 -~;
#X obj 15 21 inlet bang;
#X obj -4 226 tgl 15 0 empty empty empty 0 -6 0 10 -262144 -1 -1 0
1;
#X msg -9 181 1;
#X msg 22 181 0;
#X floatatom 31 135 5 0 0 0 - - -;
#X obj 31 153 sel 0;
#X obj 1 64 t b b;
#X msg 31 97 1 0 \, 0 40;
#X obj 31 116 line 1 40;
#X obj -4 247 switch~ 16;
#X obj 143 87 delwrite~ \$0-pick-location 100;
#X obj 141 116 delread~ \$0-pick-location 3;
#X connect 0 0 3 0;
#X connect 0 0 14 0;
#X connect 2 0 15 0;
#X connect 3 0 1 0;
#X connect 4 0 10 0;
#X connect 5 0 13 0;
#X connect 6 0 5 0;
#X connect 7 0 5 0;
#X connect 8 0 9 0;
#X connect 9 0 7 0;
#X connect 10 0 11 0;
#X connect 10 1 6 0;
#X connect 11 0 12 0;
#X connect 12 0 8 0;
#X connect 15 0 3 1;
#X restore 150 180 pd pick-position;
#X floatatom 243 100 5 0 0 0 - - -;
#N canvas 0 25 251 182 pick-position-delay-calculator 0;
#N canvas 0 0 450 300 midi-to-delay-length 0;
#X obj 33 51 mtof;
#X obj 33 71 expr 1000/$f1;
#X obj 33 31 inlet;
#X obj 33 92 outlet;
#X connect 0 0 1 0;
#X connect 1 0 3 0;
#X connect 2 0 0 0;
#X restore 56 6 pd midi-to-delay-length;
#X obj 56 -34 loadbang;
#X obj 32 47 / 4;
#X floatatom 5 -59 5 0 0 0 - - -;
#X obj 5 -42 t b f;
#X obj 5 -80 r \$0-pick-location;
#X obj 32 67 outlet pickpositiondelay;
#X msg 56 -14 28;
#X connect 0 0 2 0;
#X connect 1 0 7 0;
#X connect 2 0 6 0;
#X connect 3 0 4 0;
#X connect 4 0 2 0;
#X connect 4 1 2 1;
#X connect 5 0 3 0;
#X connect 7 0 0 0;
#X restore 243 54 pd pick-position-delay-calculator;
#X obj 93 50 t b b b f b;
#X text 274 98 pick position delay in ms;
#X connect 0 0 4 0;
#X connect 1 0 0 1;
#X connect 2 0 15 1;
#X connect 3 0 14 0;
#X connect 5 0 0 2;
#X connect 6 0 11 0;
#X connect 7 0 6 0;
#X connect 8 0 6 0;
#X connect 9 0 10 0;
#X connect 10 0 8 0;
#X connect 12 0 13 0;
#X connect 13 0 9 0;
#X connect 14 0 18 0;
#X connect 15 0 0 0;
#X connect 16 0 15 2;
#X connect 17 0 16 0;
#X connect 18 0 12 0;
#X connect 18 1 2 0;
#X connect 18 2 15 0;
#X connect 18 3 1 0;
#X connect 18 4 7 0;
#X restore 15 183 pd stringunit;
#X obj 182 123 hsl 128 15 2 50 0 0 \$0-pick-location pick-location-knob
empty -2 -6 0 10 -262144 -1 -1 12700 1;
#X floatatom 179 147 5 0 0 0 - - -;
#X text 163 147 1/;
#X text 212 147 up string from bridge;
#X text 326 278 sg 2008;
#X text 115 -64 KARPLUS-STRONG SYNTHESIS WITH BODY FORMANTS;
#X obj 90 -34 loadbang;
#X msg 90 -14 0.989;
#X obj 15 148 inlet note;
#X obj 15 223 outlet~;
#X text 207 89 pick location;
#X obj 180 61 loadbang;
#X msg 179 81 5;
#X connect 0 0 1 0;
#X connect 0 0 3 1;
#X connect 3 0 13 0;
#X connect 4 0 5 0;
#X connect 10 0 11 0;
#X connect 11 0 0 0;
#X connect 12 0 3 0;
#X connect 15 0 16 0;
#X connect 16 0 4 0;
#X restore 331 428 pd karplus-bass;
#X msg 101 371 61.7354;
#X msg 240 371 65.4064;
#X msg 386 372 73.4162;
#X msg 551 372 82.4069;
#X msg 101 395 87.3071;
#X msg 241 394 97.9989;
#X msg 386 395 110;
#X msg 552 395 123.471;
#X connect 3 0 4 0;
#X connect 3 0 5 0;
#X connect 4 0 39 0;
#X connect 4 1 40 0;
#X connect 4 2 41 0;
#X connect 4 3 42 0;
#X connect 4 4 43 0;
#X connect 4 5 44 0;
#X connect 4 6 45 0;
#X connect 4 7 46 0;
#X connect 38 0 2 0;
#X connect 39 0 38 0;
#X connect 40 0 38 0;
#X connect 41 0 38 0;
#X connect 42 0 38 0;
#X connect 43 0 38 0;
#X connect 44 0 38 0;
#X connect 45 0 38 0;
#X connect 46 0 38 0;
#X restore 247 -170 pd bass-logic-v2;
#X connect 0 0 9 0;
#X connect 1 0 3 0;
#X connect 1 0 4 0;
#X connect 1 0 4 1;
#X connect 1 0 6 0;
#X connect 2 0 1 1;
#X connect 3 0 5 0;
#X connect 6 0 7 0;
#X connect 8 0 9 1;
#X connect 9 0 10 0;
#X connect 9 0 1 0;
#X connect 10 0 11 0;
#X connect 12 0 13 0;
#X connect 12 0 1 0;
#X connect 13 0 15 0;
#X connect 14 0 12 1;
#X connect 18 0 12 0;
#X restore 101 105 pd mixer-logic;
#N canvas 152 247 1660 685 save-load-logic 0;
#X obj 623 -30 r save-current-melody;
#X obj 623 1 bng 15 250 50 0 empty empty empty 17 7 0 10 -262144 -1
-1;
#X obj 674 68 s load_save_status;
#X obj 674 41 list2symbol;
#X msg 674 16 saving;
#N canvas 0 0 1213 522 (subpatch) 0;
#X array a-0 65 float 3;
#A 0 0 0 0 0 0 1 0 0 0 0 0 0 0 1 0 0 0 0 0 0 0 1 0 0 0 0 0 0 0 1 0
0 0 0 0 0 0 1 0 0 0 0 0 0 0 1 0 0 0 0 0 0 0 1 0 0 0 0 0 0 0 1 0 0 0
;
#X coords 0 1 65 0 200 140 1 0 0;
#X restore 790 -31 graph;
#N canvas 0 0 450 300 (subpatch) 0;
#X array a-1 65 float 3;
#A 0 0 1 0 0 0 0 0 0 0 1 0 0 0 0 0 0 0 1 0 0 0 0 0 0 0 1 0 0 0 0 0
0 0 1 0 0 0 0 0 0 0 1 0 0 0 0 0 0 0 1 0 0 0 0 0 0 0 1 0 0 0 0 0 0 0
;
#X coords 0 1 65 0 200 140 1 0 0;
#X restore 1007 -30 graph;
#N canvas 0 0 450 300 (subpatch) 0;
#X array a-2 65 float 3;
#A 0 0 0 0 0 0 0 0 0 0 0 0 0 0 0 0 0 0 0 0 0 0 0 0 0 0 0 0 0 0 0 0
0 0 0 0 0 0 0 0 0 0 0 0 0 0 0 0 0 0 0 0 0 0 0 0 0 0 0 0 0 0 0 0 0 0
;
#X coords 0 1 65 0 200 140 1 0 0;
#X restore 1222 -30 graph;
#N canvas 0 0 450 300 (subpatch) 0;
#X array a-3 65 float 3;
#A 0 0 0 0 0 0 0 0 0 0 0 0 0 0 0 0 0 0 0 0 0 0 0 0 0 0 0 0 0 0 0 0
0 0 0 0 0 0 0 0 0 0 0 0 0 0 0 0 0 0 0 0 0 0 0 0 0 0 0 0 0 0 0 0 0 0
;
#X coords 0 1 65 0 200 140 1 0 0;
#X restore 1436 -31 graph;
#N canvas 0 0 450 300 (subpatch) 0;
#X array a-4 65 float 3;
#A 0 0 0 0 0 0 0 0 0 0 0 0 0 0 0 0 0 0 0 0 0 0 0 0 0 0 0 0 0 0 0 0
0 0 0 0 0 0 0 0 0 0 0 0 0 0 0 0 0 0 0 0 0 0 0 0 0 0 0 0 0 0 0 0 0 0
;
#X coords 0 1 65 0 200 140 1 0 0;
#X restore 790 133 graph;
#N canvas 0 0 450 300 (subpatch) 0;
#X array a-5 65 float 3;
#A 0 0 0 0 0 0 0 0 0 0 0 0 0 0 0 0 0 0 0 0 0 0 0 0 0 0 0 0 0 0 0 0
0 0 0 0 0 0 0 0 0 0 0 0 0 0 0 0 0 0 0 0 0 0 0 0 0 0 0 0 0 0 0 0 0 0
;
#X coords 0 1 65 0 200 140 1 0 0;
#X restore 1007 134 graph;
#N canvas 0 0 450 300 (subpatch) 0;
#X array a-6 65 float 3;
#A 0 0 0 0 0 0 0 0 0 0 0 0 0 0 0 0 0 0 0 0 0 0 0 0 0 0 0 0 0 0 0 0
0 0 0 0 0 0 0 0 0 0 0 0 0 0 0 0 0 0 0 0 0 0 0 0 0 0 0 0 0 0 0 0 0 0
;
#X coords 0 1 65 0 200 140 1 0 0;
#X restore 1222 134 graph;
#N canvas 0 0 450 300 (subpatch) 0;
#X array a-7 65 float 3;
#A 0 0 0 0 0 0 0 0 0 0 0 0 0 0 0 0 0 0 0 0 0 0 0 0 0 0 0 0 0 0 0 0
0 0 0 0 0 0 0 0 0 0 0 0 0 0 0 0 0 0 0 0 0 0 0 0 0 0 0 0 0 0 0 0 0 0
;
#X coords 0 1 65 0 200 140 1 0 0;
#X restore 1436 133 graph;
#N canvas 0 0 450 300 (subpatch) 0;
#X array a-8 65 float 3;
#A 0 0 0 0 0 0 0 0 0 0 0 0 0 0 0 0 0 0 0 0 0 0 0 0 0 0 0 0 0 0 0 0
0 0 0 0 0 0 0 0 0 0 0 0 0 0 0 0 0 0 0 0 0 0 0 0 0 0 0 0 0 0 0 0 0 0
;
#X coords 0 1 65 0 200 140 1 0 0;
#X restore 790 303 graph;
#X obj 627 333 s load_save_status;
#X obj 627 306 list2symbol;
#X msg 627 281 Files saved;
#X obj 569 415 s load_save_status;
#X obj 569 388 list2symbol;
#X msg 569 363 Ready;
#X obj 569 309 del 2000;
#X obj 569 264 t b;
#X obj 220 -26 r Load-current-melody;
#X obj 220 10 t b;
#X obj 569 70 del 2000;
#X obj 220 189 t b;
#X obj 220 298 del 100;
#X obj 38 380 t b;
#X msg 38 433 0;
#X obj 273 260 s load_save_status;
#X obj 273 233 list2symbol;
#X obj 63 291 s load_save_status;
#X obj 63 264 list2symbol;
#X msg 63 239 Ready;
#X msg 273 206 Files loading;
#N canvas 0 0 450 300 (subpatch) 0;
#X array bass 33 float 3;
#A 0 1 0 2 0 2 0 0 0 7 2 2 7 7 1 5 1 7 7 2 3 2 4 3 2 7 2 4 2 7 2 5
2 7;
#X coords 0 7 33 0 202 141 1 0 0;
#X restore 1007 301 graph;
#X msg 623 132 \; a-0 write a-0.ins \; a-1 write a-1.ins \; a-2 write
a-2.ins \; a-3 write a-3.ins \; a-4 write a-4.ins \; a-5 write a-5.ins
\; a-6 write a-6.ins \; a-7 write a-7.ins \; a-8 write a-8.ins \; bass
write bass.ins \;;
#X msg 220 46 \; a-0 read a-0.ins \; a-1 read a-1.ins \; a-2 read a-2.ins
\; a-3 read a-3.ins \; a-4 read a-4.ins \; a-5 read a-5.ins \; a-6
read a-6.ins \; a-7 read a-7.ins \; a-8 read a-8.ins \; bass read bass.ins
\;;
#X obj 63 206 del 12000;
#X obj 38 407 del 1000;
#X obj 148 380 t b;
#X msg 148 433 1;
#X obj 148 407 del 2000;
#N canvas 236 332 653 515 load-array 0;
#X obj 230 14 inlet;
#X floatatom 230 44 5 0 0 0 - - -;
#N canvas 0 0 450 300 (subpatch) 0;
#X array array2 65 float 3;
#A 0 0 0 0 1 0 0 0 1 0 0 0 1 0 0 0 1 0 0 0 1 0 0 0 1 0 0 0 1 0 0 0
1 0 0 0 1 0 0 0 1 0 0 0 1 0 0 0 1 0 0 0 1 0 0 0 1 0 0 0 1 0 0 0 1 0
;
#X coords 0 1 65 0 200 140 1 0 0;
#X restore 423 64 graph;
#X obj 332 196 until;
#X obj 351 232 float;
#X obj 394 233 + 1;
#X obj 351 317 pack 0 0;
#X obj 332 60 t b b;
#X obj 351 268 t f f;
#X msg 381 209 -1;
#X obj 243 249 ==;
#X obj 229 279 spigot;
#X obj 229 311 bng 15 250 50 0 empty empty empty 17 7 0 10 -262144
-1 -1;
#X obj 129 196 until;
#X obj 148 232 float;
#X obj 191 233 + 1;
#X msg 178 209 -1;
#X msg 258 215 66;
#X msg 129 161 66;
#X msg 332 160 66;
#X msg 187 357 symbol onSeq-col\$1;
#X obj 148 303 moses 1;
#X obj 172 396 s;
#X obj 229 335 del 100;
#X obj 396 285 tabread a-1;
#X obj 351 339 s array2;
#X obj 93 357 tabread array2;
#X obj 99 117 s instrument_init;
#X msg 229 100 1;
#X obj 174 273 del 50;
#X connect 0 0 1 0;
#X connect 1 0 7 0;
#X connect 3 0 4 0;
#X connect 4 0 5 0;
#X connect 4 0 8 0;
#X connect 4 0 10 0;
#X connect 5 0 4 1;
#X connect 6 0 25 0;
#X connect 7 0 19 0;
#X connect 7 1 9 0;
#X connect 7 1 16 0;
#X connect 8 0 6 0;
#X connect 8 1 24 0;
#X connect 9 0 5 0;
#X connect 9 0 4 1;
#X connect 10 0 11 0;
#X connect 10 0 11 1;
#X connect 11 0 12 0;
#X connect 12 0 23 0;
#X connect 13 0 14 0;
#X connect 14 0 15 0;
#X connect 14 0 21 0;
#X connect 15 0 14 1;
#X connect 16 0 15 0;
#X connect 16 0 14 1;
#X connect 17 0 10 1;
#X connect 18 0 13 0;
#X connect 19 0 3 0;
#X connect 20 0 22 1;
#X connect 21 1 20 0;
#X connect 21 1 26 0;
#X connect 23 0 28 0;
#X connect 23 0 29 0;
#X connect 24 0 6 1;
#X connect 26 0 22 0;
#X connect 28 0 27 0;
#X connect 29 0 18 0;
#X restore 147 459 pd load-array 2;
#N canvas 236 332 653 515 load-array 0;
#X obj 230 14 inlet;
#X floatatom 230 44 5 0 0 0 - - -;
#N canvas 0 0 450 300 (subpatch) 0;
#X array array1 65 float 3;
#A 0 0 1 0 0 0 1 0 0 0 1 0 0 0 1 0 0 0 1 0 0 0 1 0 0 0 1 0 0 0 1 0
0 0 1 0 0 0 1 0 0 0 1 0 0 0 1 0 0 0 1 0 0 0 1 0 0 0 1 0 0 0 1 0 0 0
;
#X coords 0 1 65 0 200 140 1 0 0;
#X restore 423 64 graph;
#X obj 332 196 until;
#X obj 351 232 float;
#X obj 394 233 + 1;
#X obj 351 317 pack 0 0;
#X obj 332 60 t b b;
#X obj 351 268 t f f;
#X msg 381 209 -1;
#X obj 243 249 ==;
#X obj 229 279 spigot;
#X obj 229 311 bng 15 250 50 0 empty empty empty 17 7 0 10 -262144
-1 -1;
#X obj 129 196 until;
#X obj 148 232 float;
#X obj 191 233 + 1;
#X msg 178 209 -1;
#X msg 258 215 66;
#X msg 129 161 66;
#X msg 332 160 66;
#X msg 187 357 symbol onSeq-col\$1;
#X obj 148 303 moses 1;
#X obj 172 396 s;
#X obj 229 335 del 100;
#X obj 99 117 s instrument_init;
#X obj 174 273 del 50;
#X msg 229 100 0;
#X obj 396 285 tabread a-0;
#X obj 351 339 s array1;
#X obj 93 357 tabread array1;
#X connect 0 0 1 0;
#X connect 1 0 7 0;
#X connect 3 0 4 0;
#X connect 4 0 5 0;
#X connect 4 0 8 0;
#X connect 4 0 10 0;
#X connect 5 0 4 1;
#X connect 6 0 28 0;
#X connect 7 0 19 0;
#X connect 7 1 9 0;
#X connect 7 1 16 0;
#X connect 8 0 6 0;
#X connect 8 1 27 0;
#X connect 9 0 5 0;
#X connect 9 0 4 1;
#X connect 10 0 11 0;
#X connect 10 0 11 1;
#X connect 11 0 12 0;
#X connect 12 0 23 0;
#X connect 13 0 14 0;
#X connect 14 0 15 0;
#X connect 14 0 21 0;
#X connect 15 0 14 1;
#X connect 16 0 15 0;
#X connect 16 0 14 1;
#X connect 17 0 10 1;
#X connect 18 0 13 0;
#X connect 19 0 3 0;
#X connect 20 0 22 1;
#X connect 21 1 20 0;
#X connect 21 1 29 0;
#X connect 23 0 26 0;
#X connect 23 0 25 0;
#X connect 25 0 18 0;
#X connect 26 0 24 0;
#X connect 27 0 6 1;
#X connect 29 0 22 0;
#X restore 38 459 pd load-array 1;
#X obj 258 380 t b;
#N canvas 236 332 653 515 load-array 0;
#X obj 230 14 inlet;
#X floatatom 230 44 5 0 0 0 - - -;
#N canvas 0 0 450 300 (subpatch) 0;
#X array array3 65 float 3;
#A 0 0 0 1 0 0 0 0 0 0 0 0 0 0 0 1 0 0 0 1 0 0 0 0 0 0 0 0 0 0 0 1
0 0 0 1 0 0 0 0 0 0 0 0 0 0 0 1 0 0 0 1 0 0 0 0 0 0 0 0 0 0 0 1 0 0
;
#X coords 0 1 65 0 200 140 1 0 0;
#X restore 423 64 graph;
#X obj 332 196 until;
#X obj 351 232 float;
#X obj 394 233 + 1;
#X obj 351 317 pack 0 0;
#X obj 332 60 t b b;
#X obj 351 268 t f f;
#X msg 381 209 -1;
#X obj 243 249 ==;
#X obj 229 279 spigot;
#X obj 229 311 bng 15 250 50 0 empty empty empty 17 7 0 10 -262144
-1 -1;
#X obj 129 196 until;
#X obj 148 232 float;
#X obj 191 233 + 1;
#X msg 178 209 -1;
#X msg 258 215 66;
#X msg 129 161 66;
#X msg 332 160 66;
#X msg 187 357 symbol onSeq-col\$1;
#X obj 148 303 moses 1;
#X obj 172 396 s;
#X obj 229 335 del 100;
#X obj 99 117 s instrument_init;
#X obj 174 273 del 50;
#X msg 229 100 2;
#X obj 396 285 tabread a-2;
#X obj 351 339 s array3;
#X obj 93 357 tabread array3;
#X connect 0 0 1 0;
#X connect 1 0 7 0;
#X connect 3 0 4 0;
#X connect 4 0 5 0;
#X connect 4 0 8 0;
#X connect 4 0 10 0;
#X connect 5 0 4 1;
#X connect 6 0 28 0;
#X connect 7 0 19 0;
#X connect 7 1 9 0;
#X connect 7 1 16 0;
#X connect 8 0 6 0;
#X connect 8 1 27 0;
#X connect 9 0 5 0;
#X connect 9 0 4 1;
#X connect 10 0 11 0;
#X connect 10 0 11 1;
#X connect 11 0 12 0;
#X connect 12 0 23 0;
#X connect 13 0 14 0;
#X connect 14 0 15 0;
#X connect 14 0 21 0;
#X connect 15 0 14 1;
#X connect 16 0 15 0;
#X connect 16 0 14 1;
#X connect 17 0 10 1;
#X connect 18 0 13 0;
#X connect 19 0 3 0;
#X connect 20 0 22 1;
#X connect 21 1 20 0;
#X connect 21 1 29 0;
#X connect 23 0 26 0;
#X connect 23 0 25 0;
#X connect 25 0 18 0;
#X connect 26 0 24 0;
#X connect 27 0 6 1;
#X connect 29 0 22 0;
#X restore 257 459 pd load-array 3;
#X obj 258 407 del 3000;
#X obj 368 380 t b;
#N canvas 236 332 653 515 load-array 0;
#X obj 230 14 inlet;
#X floatatom 230 44 5 0 0 0 - - -;
#N canvas 0 0 450 300 (subpatch) 0;
#X array array4 65 float 3;
#A 0 0 0 0 0 1 0 0 0 1 0 0 0 1 0 0 0 1 0 0 0 1 0 0 0 1 0 0 0 1 0 0
0 1 0 0 0 1 0 0 0 1 0 0 0 1 0 0 0 1 0 0 0 1 0 0 0 1 0 0 0 1 0 0 0 1
;
#X coords 0 1 65 0 200 140 1 0 0;
#X restore 423 64 graph;
#X obj 332 196 until;
#X obj 351 232 float;
#X obj 394 233 + 1;
#X obj 351 317 pack 0 0;
#X obj 332 60 t b b;
#X obj 351 268 t f f;
#X msg 381 209 -1;
#X obj 243 249 ==;
#X obj 229 279 spigot;
#X obj 229 311 bng 15 250 50 0 empty empty empty 17 7 0 10 -262144
-1 -1;
#X obj 129 196 until;
#X obj 148 232 float;
#X obj 191 233 + 1;
#X msg 178 209 -1;
#X msg 258 215 66;
#X msg 129 161 66;
#X msg 332 160 66;
#X msg 187 357 symbol onSeq-col\$1;
#X obj 148 303 moses 1;
#X obj 172 396 s;
#X obj 229 335 del 100;
#X obj 99 117 s instrument_init;
#X obj 174 273 del 50;
#X obj 396 285 tabread a-3;
#X obj 351 339 s array4;
#X obj 93 357 tabread array4;
#X msg 229 100 3;
#X connect 0 0 1 0;
#X connect 1 0 7 0;
#X connect 3 0 4 0;
#X connect 4 0 5 0;
#X connect 4 0 8 0;
#X connect 4 0 10 0;
#X connect 5 0 4 1;
#X connect 6 0 27 0;
#X connect 7 0 19 0;
#X connect 7 1 9 0;
#X connect 7 1 16 0;
#X connect 8 0 6 0;
#X connect 8 1 26 0;
#X connect 9 0 5 0;
#X connect 9 0 4 1;
#X connect 10 0 11 0;
#X connect 10 0 11 1;
#X connect 11 0 12 0;
#X connect 12 0 23 0;
#X connect 13 0 14 0;
#X connect 14 0 15 0;
#X connect 14 0 21 0;
#X connect 15 0 14 1;
#X connect 16 0 15 0;
#X connect 16 0 14 1;
#X connect 17 0 10 1;
#X connect 18 0 13 0;
#X connect 19 0 3 0;
#X connect 20 0 22 1;
#X connect 21 1 20 0;
#X connect 21 1 28 0;
#X connect 23 0 29 0;
#X connect 23 0 25 0;
#X connect 25 0 18 0;
#X connect 26 0 6 1;
#X connect 28 0 22 0;
#X connect 29 0 24 0;
#X restore 367 459 pd load-array 4;
#X obj 368 407 del 4000;
#X msg 258 433 1;
#X msg 368 433 1;
#X obj 38 500 t b;
#X msg 38 553 0;
#X obj 148 500 t b;
#X msg 148 553 1;
#X obj 258 500 t b;
#X obj 368 500 t b;
#X msg 258 553 1;
#X msg 368 553 1;
#X obj 478 500 t b;
#X msg 478 553 1;
#X obj 38 527 del 5000;
#X obj 148 527 del 6000;
#X obj 258 527 del 7000;
#X obj 368 527 del 8000;
#X obj 478 527 del 9000;
#N canvas 570 372 653 515 load-array 0;
#X obj 230 14 inlet;
#X floatatom 230 44 5 0 0 0 - - -;
#N canvas 0 0 450 300 (subpatch) 0;
#X array array5 65 float 3;
#A 0 0 0 0 0 0 0 0 0 0 0 0 0 0 0 0 0 0 0 0 1 0 0 1 1 1 0 0 0 0 0 0
0 0 0 0 0 0 0 0 0 0 0 0 0 0 0 0 0 0 0 0 1 0 0 1 1 1 0 0 0 0 0 0 0 0
;
#X coords 0 1 65 0 200 140 1 0 0;
#X restore 423 64 graph;
#X obj 332 196 until;
#X obj 351 232 float;
#X obj 394 233 + 1;
#X obj 351 317 pack 0 0;
#X obj 332 60 t b b;
#X obj 351 268 t f f;
#X msg 381 209 -1;
#X obj 243 249 ==;
#X obj 229 279 spigot;
#X obj 229 311 bng 15 250 50 0 empty empty empty 17 7 0 10 -262144
-1 -1;
#X obj 129 196 until;
#X obj 148 232 float;
#X obj 191 233 + 1;
#X msg 178 209 -1;
#X msg 258 215 66;
#X msg 129 161 66;
#X msg 332 160 66;
#X msg 187 357 symbol onSeq-col\$1;
#X obj 148 303 moses 1;
#X obj 172 396 s;
#X obj 229 335 del 100;
#X obj 99 117 s instrument_init;
#X obj 174 273 del 50;
#X obj 396 285 tabread a-4;
#X obj 93 357 tabread array5;
#X obj 351 339 s array5;
#X msg 229 100 4;
#X connect 0 0 1 0;
#X connect 1 0 7 0;
#X connect 3 0 4 0;
#X connect 4 0 5 0;
#X connect 4 0 8 0;
#X connect 4 0 10 0;
#X connect 5 0 4 1;
#X connect 6 0 28 0;
#X connect 7 0 19 0;
#X connect 7 1 9 0;
#X connect 7 1 16 0;
#X connect 8 0 6 0;
#X connect 8 1 26 0;
#X connect 9 0 5 0;
#X connect 9 0 4 1;
#X connect 10 0 11 0;
#X connect 10 0 11 1;
#X connect 11 0 12 0;
#X connect 12 0 23 0;
#X connect 13 0 14 0;
#X connect 14 0 15 0;
#X connect 14 0 21 0;
#X connect 15 0 14 1;
#X connect 16 0 15 0;
#X connect 16 0 14 1;
#X connect 17 0 10 1;
#X connect 18 0 13 0;
#X connect 19 0 3 0;
#X connect 20 0 22 1;
#X connect 21 1 20 0;
#X connect 21 1 27 0;
#X connect 23 0 29 0;
#X connect 23 0 25 0;
#X connect 25 0 18 0;
#X connect 26 0 6 1;
#X connect 27 0 22 0;
#X connect 29 0 24 0;
#X restore 38 579 pd load-array 5;
#N canvas 505 348 653 515 load-array 0;
#X obj 230 14 inlet;
#X floatatom 230 44 5 0 0 0 - - -;
#N canvas 0 0 450 300 (subpatch) 0;
#X array array6 65 float 3;
#A 0 0 0 0 0 0 0 0 0 0 0 0 0 0 0 0 0 0 0 0 0 0 0 0 0 0 0 0 0 0 0 0
0 0 0 0 0 0 0 0 0 0 0 0 0 0 0 0 0 0 0 0 0 0 0 0 0 0 0 0 0 0 0 0 0 0
;
#X coords 0 1 65 0 200 140 1 0 0;
#X restore 423 64 graph;
#X obj 332 196 until;
#X obj 351 232 float;
#X obj 394 233 + 1;
#X obj 351 317 pack 0 0;
#X obj 332 60 t b b;
#X obj 351 268 t f f;
#X msg 381 209 -1;
#X obj 243 249 ==;
#X obj 229 279 spigot;
#X obj 229 311 bng 15 250 50 0 empty empty empty 17 7 0 10 -262144
-1 -1;
#X obj 129 196 until;
#X obj 148 232 float;
#X obj 191 233 + 1;
#X msg 178 209 -1;
#X msg 258 215 66;
#X msg 129 161 66;
#X msg 332 160 66;
#X msg 187 357 symbol onSeq-col\$1;
#X obj 148 303 moses 1;
#X obj 172 396 s;
#X obj 229 335 del 100;
#X obj 99 117 s instrument_init;
#X obj 174 273 del 50;
#X msg 229 100 5;
#X obj 396 285 tabread a-5;
#X obj 351 339 s array6;
#X obj 93 357 tabread array6;
#X connect 0 0 1 0;
#X connect 1 0 7 0;
#X connect 3 0 4 0;
#X connect 4 0 5 0;
#X connect 4 0 8 0;
#X connect 4 0 10 0;
#X connect 5 0 4 1;
#X connect 6 0 28 0;
#X connect 7 0 19 0;
#X connect 7 1 9 0;
#X connect 7 1 16 0;
#X connect 8 0 6 0;
#X connect 8 1 27 0;
#X connect 9 0 5 0;
#X connect 9 0 4 1;
#X connect 10 0 11 0;
#X connect 10 0 11 1;
#X connect 11 0 12 0;
#X connect 12 0 23 0;
#X connect 13 0 14 0;
#X connect 14 0 15 0;
#X connect 14 0 21 0;
#X connect 15 0 14 1;
#X connect 16 0 15 0;
#X connect 16 0 14 1;
#X connect 17 0 10 1;
#X connect 18 0 13 0;
#X connect 19 0 3 0;
#X connect 20 0 22 1;
#X connect 21 1 20 0;
#X connect 21 1 29 0;
#X connect 23 0 26 0;
#X connect 23 0 25 0;
#X connect 25 0 18 0;
#X connect 26 0 24 0;
#X connect 27 0 6 1;
#X connect 29 0 22 0;
#X restore 147 579 pd load-array 6;
#N canvas 553 352 653 515 load-array 0;
#X obj 230 14 inlet;
#X floatatom 230 44 5 0 0 0 - - -;
#N canvas 0 0 450 300 (subpatch) 0;
#X array array7 65 float 3;
#A 0 0 0 1 0 0 0 1 0 0 0 1 0 0 0 1 0 0 0 1 0 0 0 1 0 0 0 1 0 0 0 1
0 0 0 1 0 0 0 1 0 0 0 1 0 0 0 1 0 0 0 1 0 0 0 1 0 0 0 1 0 0 0 1 0 0
;
#X coords 0 1 65 0 200 140 1 0 0;
#X restore 423 64 graph;
#X obj 332 196 until;
#X obj 351 232 float;
#X obj 394 233 + 1;
#X obj 351 317 pack 0 0;
#X obj 332 60 t b b;
#X obj 351 268 t f f;
#X msg 381 209 -1;
#X obj 243 249 ==;
#X obj 229 279 spigot;
#X obj 229 311 bng 15 250 50 0 empty empty empty 17 7 0 10 -262144
-1 -1;
#X obj 129 196 until;
#X obj 148 232 float;
#X obj 191 233 + 1;
#X msg 178 209 -1;
#X msg 258 215 66;
#X msg 129 161 66;
#X msg 332 160 66;
#X msg 187 357 symbol onSeq-col\$1;
#X obj 148 303 moses 1;
#X obj 172 396 s;
#X obj 229 335 del 100;
#X obj 99 117 s instrument_init;
#X obj 174 273 del 50;
#X msg 229 100 6;
#X obj 396 285 tabread a-6;
#X obj 351 339 s array7;
#X obj 93 357 tabread array7;
#X connect 0 0 1 0;
#X connect 1 0 7 0;
#X connect 3 0 4 0;
#X connect 4 0 5 0;
#X connect 4 0 8 0;
#X connect 4 0 10 0;
#X connect 5 0 4 1;
#X connect 6 0 28 0;
#X connect 7 0 19 0;
#X connect 7 1 9 0;
#X connect 7 1 16 0;
#X connect 8 0 6 0;
#X connect 8 1 27 0;
#X connect 9 0 5 0;
#X connect 9 0 4 1;
#X connect 10 0 11 0;
#X connect 10 0 11 1;
#X connect 11 0 12 0;
#X connect 12 0 23 0;
#X connect 13 0 14 0;
#X connect 14 0 15 0;
#X connect 14 0 21 0;
#X connect 15 0 14 1;
#X connect 16 0 15 0;
#X connect 16 0 14 1;
#X connect 17 0 10 1;
#X connect 18 0 13 0;
#X connect 19 0 3 0;
#X connect 20 0 22 1;
#X connect 21 1 20 0;
#X connect 21 1 29 0;
#X connect 23 0 26 0;
#X connect 23 0 25 0;
#X connect 25 0 18 0;
#X connect 26 0 24 0;
#X connect 27 0 6 1;
#X connect 29 0 22 0;
#X restore 257 579 pd load-array 7;
#N canvas 236 332 653 515 load-array 0;
#X obj 230 14 inlet;
#X floatatom 230 44 5 0 0 0 - - -;
#N canvas 0 0 450 300 (subpatch) 0;
#X array array8 65 float 3;
#A 0 0 0 0 0 1 0 0 0 1 0 0 0 1 0 0 0 1 0 0 0 1 0 0 0 1 0 0 0 1 0 0
0 1 0 0 0 1 0 0 0 1 0 0 0 1 0 0 0 1 0 0 0 1 0 0 0 1 0 0 0 1 0 0 0 1
;
#X coords 0 1 65 0 200 140 1 0 0;
#X restore 423 64 graph;
#X obj 332 196 until;
#X obj 351 232 float;
#X obj 394 233 + 1;
#X obj 351 317 pack 0 0;
#X obj 332 60 t b b;
#X obj 351 268 t f f;
#X msg 381 209 -1;
#X obj 243 249 ==;
#X obj 229 279 spigot;
#X obj 229 311 bng 15 250 50 0 empty empty empty 17 7 0 10 -262144
-1 -1;
#X obj 129 196 until;
#X obj 148 232 float;
#X obj 191 233 + 1;
#X msg 178 209 -1;
#X msg 258 215 66;
#X msg 129 161 66;
#X msg 332 160 66;
#X msg 187 357 symbol onSeq-col\$1;
#X obj 148 303 moses 1;
#X obj 172 396 s;
#X obj 229 335 del 100;
#X obj 99 117 s instrument_init;
#X obj 174 273 del 50;
#X obj 396 285 tabread a-7;
#X msg 229 100 7;
#X obj 351 339 s array8;
#X obj 93 357 tabread array8;
#X connect 0 0 1 0;
#X connect 1 0 7 0;
#X connect 3 0 4 0;
#X connect 4 0 5 0;
#X connect 4 0 8 0;
#X connect 4 0 10 0;
#X connect 5 0 4 1;
#X connect 6 0 28 0;
#X connect 7 0 19 0;
#X connect 7 1 9 0;
#X connect 7 1 16 0;
#X connect 8 0 6 0;
#X connect 8 1 26 0;
#X connect 9 0 5 0;
#X connect 9 0 4 1;
#X connect 10 0 11 0;
#X connect 10 0 11 1;
#X connect 11 0 12 0;
#X connect 12 0 23 0;
#X connect 13 0 14 0;
#X connect 14 0 15 0;
#X connect 14 0 21 0;
#X connect 15 0 14 1;
#X connect 16 0 15 0;
#X connect 16 0 14 1;
#X connect 17 0 10 1;
#X connect 18 0 13 0;
#X connect 19 0 3 0;
#X connect 20 0 22 1;
#X connect 21 1 20 0;
#X connect 21 1 29 0;
#X connect 23 0 27 0;
#X connect 23 0 25 0;
#X connect 25 0 18 0;
#X connect 26 0 6 1;
#X connect 27 0 24 0;
#X connect 29 0 22 0;
#X restore 367 579 pd load-array 8;
#N canvas 236 332 653 515 load-array 0;
#X obj 230 14 inlet;
#X floatatom 230 44 5 0 0 0 - - -;
#N canvas 0 0 450 300 (subpatch) 0;
#X array array9 65 float 3;
#A 0 0 0 0 0 0 0 0 0 0 0 0 0 0 0 0 0 0 0 0 0 0 0 0 0 0 0 0 0 0 0 0
0 0 0 0 0 0 0 0 0 0 0 0 0 0 0 0 0 0 0 0 0 0 0 0 0 0 0 0 0 0 0 0 0 0
;
#X coords 0 1 65 0 200 140 1 0 0;
#X restore 423 64 graph;
#X obj 332 196 until;
#X obj 351 232 float;
#X obj 394 233 + 1;
#X obj 351 317 pack 0 0;
#X obj 332 60 t b b;
#X obj 351 268 t f f;
#X msg 381 209 -1;
#X obj 243 249 ==;
#X obj 229 279 spigot;
#X obj 229 311 bng 15 250 50 0 empty empty empty 17 7 0 10 -262144
-1 -1;
#X obj 129 196 until;
#X obj 148 232 float;
#X obj 191 233 + 1;
#X msg 178 209 -1;
#X msg 258 215 66;
#X msg 129 161 66;
#X msg 332 160 66;
#X msg 187 357 symbol onSeq-col\$1;
#X obj 148 303 moses 1;
#X obj 172 396 s;
#X obj 229 335 del 100;
#X obj 99 117 s instrument_init;
#X obj 174 273 del 50;
#X msg 229 100 8;
#X obj 396 285 tabread a-8;
#X obj 351 339 s array9;
#X obj 93 357 tabread array9;
#X connect 0 0 1 0;
#X connect 1 0 7 0;
#X connect 3 0 4 0;
#X connect 4 0 5 0;
#X connect 4 0 8 0;
#X connect 4 0 10 0;
#X connect 5 0 4 1;
#X connect 6 0 28 0;
#X connect 7 0 19 0;
#X connect 7 1 9 0;
#X connect 7 1 16 0;
#X connect 8 0 6 0;
#X connect 8 1 27 0;
#X connect 9 0 5 0;
#X connect 9 0 4 1;
#X connect 10 0 11 0;
#X connect 10 0 11 1;
#X connect 11 0 12 0;
#X connect 12 0 23 0;
#X connect 13 0 14 0;
#X connect 14 0 15 0;
#X connect 14 0 21 0;
#X connect 15 0 14 1;
#X connect 16 0 15 0;
#X connect 16 0 14 1;
#X connect 17 0 10 1;
#X connect 18 0 13 0;
#X connect 19 0 3 0;
#X connect 20 0 22 1;
#X connect 21 1 20 0;
#X connect 21 1 29 0;
#X connect 23 0 26 0;
#X connect 23 0 25 0;
#X connect 25 0 18 0;
#X connect 26 0 24 0;
#X connect 27 0 6 1;
#X connect 29 0 22 0;
#X restore 477 579 pd load-array 9;
#X obj 584 499 t b;
#X msg 584 552 1;
#X obj 584 526 del 10000;
#X obj 697 497 t b;
#X obj 697 524 del 11000;
#X msg 697 550 0;
#X obj 697 576 s instrument_init;
#N canvas 236 332 653 515 bass-array 0;
#X obj 230 14 inlet;
#X floatatom 230 44 5 0 0 0 - - -;
#X obj 230 70 t b b;
#X obj 230 136 until;
#X obj 249 172 float;
#X obj 292 173 + 1;
#X msg 279 149 -1;
#X obj 249 213 moses 1;
#X obj 273 306 s;
#X msg 230 101 33;
#X obj 194 267 tabread bass;
#X msg 288 267 symbol bass-radio-\$1-r;
#X connect 0 0 1 0;
#X connect 1 0 2 0;
#X connect 2 0 9 0;
#X connect 2 1 6 0;
#X connect 3 0 4 0;
#X connect 4 0 5 0;
#X connect 4 0 7 0;
#X connect 5 0 4 1;
#X connect 6 0 5 0;
#X connect 6 0 4 1;
#X connect 7 1 11 0;
#X connect 7 1 10 0;
#X connect 9 0 3 0;
#X connect 10 0 8 0;
#X connect 11 0 8 1;
#X restore 583 578 pd bass-array 9;
#X connect 0 0 1 0;
#X connect 1 0 4 0;
#X connect 1 0 36 0;
#X connect 1 0 24 0;
#X connect 3 0 2 0;
#X connect 4 0 3 0;
#X connect 15 0 14 0;
#X connect 16 0 15 0;
#X connect 18 0 17 0;
#X connect 19 0 18 0;
#X connect 20 0 19 0;
#X connect 21 0 20 0;
#X connect 21 0 16 0;
#X connect 22 0 23 0;
#X connect 23 0 37 0;
#X connect 23 0 25 0;
#X connect 24 0 21 0;
#X connect 25 0 26 0;
#X connect 25 0 34 0;
#X connect 25 0 38 0;
#X connect 26 0 27 0;
#X connect 26 0 40 0;
#X connect 26 0 45 0;
#X connect 26 0 48 0;
#X connect 26 0 53 0;
#X connect 26 0 55 0;
#X connect 26 0 57 0;
#X connect 26 0 58 0;
#X connect 26 0 61 0;
#X connect 26 0 73 0;
#X connect 26 0 76 0;
#X connect 27 0 39 0;
#X connect 28 0 44 0;
#X connect 30 0 29 0;
#X connect 32 0 31 0;
#X connect 33 0 32 0;
#X connect 34 0 30 0;
#X connect 38 0 33 0;
#X connect 39 0 28 0;
#X connect 40 0 42 0;
#X connect 41 0 43 0;
#X connect 42 0 41 0;
#X connect 45 0 47 0;
#X connect 47 0 51 0;
#X connect 48 0 50 0;
#X connect 50 0 52 0;
#X connect 51 0 46 0;
#X connect 52 0 49 0;
#X connect 53 0 63 0;
#X connect 54 0 68 0;
#X connect 55 0 64 0;
#X connect 56 0 69 0;
#X connect 57 0 65 0;
#X connect 58 0 66 0;
#X connect 59 0 70 0;
#X connect 60 0 71 0;
#X connect 61 0 67 0;
#X connect 62 0 72 0;
#X connect 63 0 54 0;
#X connect 64 0 56 0;
#X connect 65 0 59 0;
#X connect 66 0 60 0;
#X connect 67 0 62 0;
#X connect 73 0 75 0;
#X connect 74 0 80 0;
#X connect 75 0 74 0;
#X connect 76 0 77 0;
#X connect 77 0 78 0;
#X connect 78 0 79 0;
#X restore 199 79 pd save-load-logic;
#X connect 1 0 0 0;
#X connect 1 0 6 0;
#X connect 2 0 3 0;
#X connect 5 0 4 0;
#X restore 172 -83 pd internal;
#X obj 29 -18 cnv 15 300 385 empty empty empty 20 12 0 14 -191407 -66577
0;
#X obj 43 85 cnv 15 270 268 empty empty empty 20 12 0 14 -162280 -66577
0;
#X obj 45 56 hradio 15 1 0 9 instrument instrument_init empty 0 -8
0 10 -262144 -1 -1 2;
#X symbolatom 107 36 12 0 0 0 Instrument instrument_name do_not_use
;
#X obj 55 96 tgl 25 0 onSeq1 onSeq-col1 empty 17 7 0 10 -262144 -33289
-262144 0 1;
#X obj 85 96 tgl 25 0 onSeq2 onSeq-col2 empty 17 7 0 10 -262144 -33289
-262144 0 1;
#X obj 115 96 tgl 25 0 onSeq3 onSeq-col3 empty 17 7 0 10 -262144 -33289
-262144 0 1;
#X obj 145 96 tgl 25 0 onSeq4 onSeq-col4 empty 17 7 0 10 -262144 -33289
-262144 0 1;
#X obj 185 96 tgl 25 0 onSeq5 onSeq-col5 empty 17 7 0 10 -262144 -33289
-262144 0 1;
#X obj 215 96 tgl 25 0 onSeq6 onSeq-col6 empty 17 7 0 10 -262144 -33289
-262144 0 1;
#X obj 245 96 tgl 25 0 onSeq7 onSeq-col7 empty 17 7 0 10 -262144 -33289
-262144 0 1;
#X obj 275 96 tgl 25 0 onSeq8 onSeq-col8 empty 17 7 0 10 -262144 -33289
-262144 0 1;
#X obj 55 126 tgl 25 0 onSeq9 onSeq-col9 empty 17 7 0 10 -262144 -33289
-262144 0 1;
#X obj 85 126 tgl 25 0 onSeq10 onSeq-col10 empty 17 7 0 10 -262144
-33289 -262144 0 1;
#X obj 115 126 tgl 25 0 onSeq11 onSeq-col11 empty 17 7 0 10 -262144
-33289 -262144 0 1;
#X obj 145 126 tgl 25 0 onSeq12 onSeq-col12 empty 17 7 0 10 -262144
-33289 -262144 0 1;
#X obj 185 126 tgl 25 0 onSeq13 onSeq-col13 empty 17 7 0 10 -262144
-33289 -262144 0 1;
#X obj 215 126 tgl 25 0 onSeq14 onSeq-col14 empty 17 7 0 10 -262144
-33289 -262144 0 1;
#X obj 245 126 tgl 25 0 onSeq15 onSeq-col15 empty 17 7 0 10 -262144
-33289 -262144 0 1;
#X obj 275 126 tgl 25 0 onSeq16 onSeq-col16 empty 17 7 0 10 -262144
-33289 -262144 0 1;
#X obj 55 156 tgl 25 0 onSeq17 onSeq-col17 empty 17 7 0 10 -262144
-33289 -262144 0 1;
#X obj 85 156 tgl 25 0 onSeq18 onSeq-col18 empty 17 7 0 10 -262144
-33289 -262144 0 1;
#X obj 115 156 tgl 25 0 onSeq19 onSeq-col19 empty 17 7 0 10 -262144
-33289 -262144 0 1;
#X obj 145 156 tgl 25 0 onSeq20 onSeq-col20 empty 17 7 0 10 -262144
-33289 -262144 0 1;
#X obj 185 156 tgl 25 0 onSeq21 onSeq-col21 empty 17 7 0 10 -262144
-33289 -262144 0 1;
#X obj 215 156 tgl 25 0 onSeq22 onSeq-col22 empty 17 7 0 10 -262144
-33289 -262144 0 1;
#X obj 245 156 tgl 25 0 onSeq23 onSeq-col23 empty 17 7 0 10 -262144
-33289 -262144 0 1;
#X obj 275 156 tgl 25 0 onSeq24 onSeq-col24 empty 17 7 0 10 -262144
-33289 -262144 0 1;
#X obj 55 186 tgl 25 0 onSeq25 onSeq-col25 empty 17 7 0 10 -262144
-33289 -262144 0 1;
#X obj 85 186 tgl 25 0 onSeq26 onSeq-col26 empty 17 7 0 10 -262144
-33289 -262144 0 1;
#X obj 115 186 tgl 25 0 onSeq27 onSeq-col27 empty 17 7 0 10 -262144
-33289 -262144 0 1;
#X obj 145 186 tgl 25 0 onSeq28 onSeq-col28 empty 17 7 0 10 -262144
-33289 -262144 0 1;
#X obj 185 186 tgl 25 0 onSeq29 onSeq-col29 empty 17 7 0 10 -262144
-33289 -262144 0 1;
#X obj 215 186 tgl 25 0 onSeq30 onSeq-col30 empty 17 7 0 10 -262144
-33289 -262144 0 1;
#X obj 245 186 tgl 25 0 onSeq31 onSeq-col31 empty 17 7 0 10 -262144
-33289 -262144 0 1;
#X obj 275 186 tgl 25 0 onSeq32 onSeq-col32 empty 17 7 0 10 -262144
-33289 -262144 0 1;
#X obj 55 226 tgl 25 0 onSeq33 onSeq-col33 empty 17 7 0 10 -262144
-33289 -262144 0 1;
#X obj 85 226 tgl 25 0 onSeq34 onSeq-col34 empty 17 7 0 10 -262144
-33289 -262144 0 1;
#X obj 115 226 tgl 25 0 onSeq35 onSeq-col35 empty 17 7 0 10 -262144
-33289 -262144 0 1;
#X obj 145 226 tgl 25 0 onSeq36 onSeq-col36 empty 17 7 0 10 -262144
-33289 -262144 0 1;
#X obj 185 226 tgl 25 0 onSeq37 onSeq-col37 empty 17 7 0 10 -262144
-33289 -262144 0 1;
#X obj 215 226 tgl 25 0 onSeq38 onSeq-col38 empty 17 7 0 10 -262144
-33289 -262144 0 1;
#X obj 245 226 tgl 25 0 onSeq39 onSeq-col39 empty 17 7 0 10 -262144
-33289 -262144 0 1;
#X obj 275 226 tgl 25 0 onSeq40 onSeq-col40 empty 17 7 0 10 -262144
-33289 -262144 0 1;
#X obj 55 256 tgl 25 0 onSeq41 onSeq-col41 empty 17 7 0 10 -262144
-33289 -262144 0 1;
#X obj 85 256 tgl 25 0 onSeq42 onSeq-col42 empty 17 7 0 10 -262144
-33289 -262144 0 1;
#X obj 115 256 tgl 25 0 onSeq43 onSeq-col43 empty 17 7 0 10 -262144
-33289 -262144 0 1;
#X obj 145 256 tgl 25 0 onSeq44 onSeq-col44 empty 17 7 0 10 -262144
-33289 -262144 0 1;
#X obj 185 256 tgl 25 0 onSeq45 onSeq-col45 empty 17 7 0 10 -262144
-33289 -262144 0 1;
#X obj 215 256 tgl 25 0 onSeq46 onSeq-col46 empty 17 7 0 10 -262144
-33289 -262144 0 1;
#X obj 245 256 tgl 25 0 onSeq47 onSeq-col47 empty 17 7 0 10 -262144
-33289 -262144 0 1;
#X obj 275 256 tgl 25 0 onSeq48 onSeq-col48 empty 17 7 0 10 -262144
-33289 -262144 0 1;
#X obj 55 286 tgl 25 0 onSeq49 onSeq-col49 empty 17 7 0 10 -262144
-33289 -262144 0 1;
#X obj 85 286 tgl 25 0 onSeq50 onSeq-col50 empty 17 7 0 10 -262144
-33289 -262144 0 1;
#X obj 115 286 tgl 25 0 onSeq51 onSeq-col51 empty 17 7 0 10 -262144
-33289 -262144 0 1;
#X obj 145 286 tgl 25 0 onSeq52 onSeq-col52 empty 17 7 0 10 -262144
-33289 -262144 0 1;
#X obj 185 286 tgl 25 0 onSeq53 onSeq-col53 empty 17 7 0 10 -262144
-33289 -262144 0 1;
#X obj 215 286 tgl 25 0 onSeq54 onSeq-col54 empty 17 7 0 10 -262144
-33289 -262144 0 1;
#X obj 245 286 tgl 25 0 onSeq55 onSeq-col55 empty 17 7 0 10 -262144
-33289 -262144 0 1;
#X obj 275 286 tgl 25 0 onSeq56 onSeq-col56 empty 17 7 0 10 -262144
-33289 -262144 0 1;
#X obj 55 316 tgl 25 0 onSeq57 onSeq-col57 empty 17 7 0 10 -262144
-33289 -262144 0 1;
#X obj 85 316 tgl 25 0 onSeq58 onSeq-col58 empty 17 7 0 10 -262144
-33289 -262144 0 1;
#X obj 115 316 tgl 25 0 onSeq59 onSeq-col59 empty 17 7 0 10 -262144
-33289 -262144 0 1;
#X obj 145 316 tgl 25 0 onSeq60 onSeq-col60 empty 17 7 0 10 -262144
-33289 -262144 0 1;
#X obj 185 316 tgl 25 0 onSeq61 onSeq-col61 empty 17 7 0 10 -262144
-33289 -262144 0 1;
#X obj 215 316 tgl 25 0 onSeq62 onSeq-col62 empty 17 7 0 10 -262144
-33289 -262144 0 1;
#X obj 245 316 tgl 25 0 onSeq63 onSeq-col63 empty 17 7 0 10 -262144
-33289 -262144 0 1;
#X obj 275 316 tgl 25 0 onSeq64 onSeq-col64 empty 17 7 0 10 -262144
-33289 -262144 0 1;
#X obj 341 -18 cnv 15 700 170 empty empty empty 20 12 0 14 -191407
-66577 0;
#X obj 354 20 vradio 15 1 0 8 bass-radio-1-s bass-radio-1-r empty 0
-8 0 10 -166441 -1 -262144 0;
#X obj 370 20 vradio 15 1 0 8 bass-radio-2-s bass-radio-2-r empty 0
-8 0 10 -166441 -1 -262144 0;
#X obj 386 20 vradio 15 1 0 8 bass-radio-3-s bass-radio-3-r empty 0
-8 0 10 -166441 -1 -262144 0;
#X obj 402 20 vradio 15 1 0 8 bass-radio-4-s bass-radio-4-r empty 0
-8 0 10 -166441 -1 -262144 0;
#X obj 418 20 vradio 15 1 0 8 bass-radio-5-s bass-radio-5-r empty 0
-8 0 10 -166441 -1 -262144 0;
#X obj 434 20 vradio 15 1 0 8 bass-radio-6-s bass-radio-6-r empty 0
-8 0 10 -166441 -1 -262144 0;
#X obj 450 20 vradio 15 1 0 8 bass-radio-7-s bass-radio-7-r empty 0
-8 0 10 -166441 -1 -262144 0;
#X obj 466 20 vradio 15 1 0 8 bass-radio-8-s bass-radio-8-r empty 0
-8 0 10 -166441 -1 -262144 0;
#X obj 482 20 vradio 15 1 0 8 bass-radio-9-s bass-radio-9-r empty 0
-8 0 10 -166441 -1 -262144 0;
#X obj 498 20 vradio 15 1 0 8 bass-radio-10-s bass-radio-10-r empty
0 -8 0 10 -166441 -1 -262144 0;
#X obj 514 20 vradio 15 1 0 8 bass-radio-11-s bass-radio-11-r empty
0 -8 0 10 -166441 -1 -262144 0;
#X obj 530 20 vradio 15 1 0 8 bass-radio-12-s bass-radio-12-r empty
0 -8 0 10 -166441 -1 -262144 0;
#X obj 546 20 vradio 15 1 0 8 bass-radio-13-s bass-radio-13-r empty
0 -8 0 10 -166441 -1 -262144 0;
#X obj 562 20 vradio 15 1 0 8 bass-radio-14-s bass-radio-14-r empty
0 -8 0 10 -166441 -1 -262144 0;
#X obj 578 20 vradio 15 1 0 8 bass-radio-15-s bass-radio-15-r empty
0 -8 0 10 -166441 -1 -262144 0;
#X obj 594 20 vradio 15 1 0 8 bass-radio-16-s bass-radio-16-r empty
0 -8 0 10 -166441 -1 -262144 0;
#X obj 610 20 vradio 15 1 0 8 bass-radio-17-s bass-radio-17-r empty
0 -8 0 10 -166441 -1 -262144 0;
#X obj 626 20 vradio 15 1 0 8 bass-radio-18-s bass-radio-18-r empty
0 -8 0 10 -166441 -1 -262144 0;
#X obj 642 20 vradio 15 1 0 8 bass-radio-19-s bass-radio-19-r empty
0 -8 0 10 -166441 -1 -262144 0;
#X obj 658 20 vradio 15 1 0 8 bass-radio-20-s bass-radio-20-r empty
0 -8 0 10 -166441 -1 -262144 0;
#X obj 674 20 vradio 15 1 0 8 bass-radio-21-s bass-radio-21-r empty
0 -8 0 10 -166441 -1 -262144 0;
#X obj 690 20 vradio 15 1 0 8 bass-radio-22-s bass-radio-22-r empty
0 -8 0 10 -166441 -1 -262144 0;
#X obj 706 20 vradio 15 1 0 8 bass-radio-23-s bass-radio-23-r empty
0 -8 0 10 -166441 -1 -262144 0;
#X obj 722 20 vradio 15 1 0 8 bass-radio-24-s bass-radio-24-r empty
0 -8 0 10 -166441 -1 -262144 0;
#X obj 738 20 vradio 15 1 0 8 bass-radio-25-s bass-radio-25-r empty
0 -8 0 10 -166441 -1 -262144 0;
#X obj 754 20 vradio 15 1 0 8 bass-radio-26-s bass-radio-26-r empty
0 -8 0 10 -166441 -1 -262144 0;
#X obj 770 20 vradio 15 1 0 8 bass-radio-27-s bass-radio-27-r empty
0 -8 0 10 -166441 -1 -262144 0;
#X obj 786 20 vradio 15 1 0 8 bass-radio-28-s bass-radio-28-r empty
0 -8 0 10 -166441 -1 -262144 0;
#X obj 802 20 vradio 15 1 0 8 bass-radio-29-s bass-radio-29-r empty
0 -8 0 10 -166441 -1 -262144 0;
#X obj 818 20 vradio 15 1 0 8 bass-radio-30-s bass-radio-30-r empty
0 -8 0 10 -166441 -1 -262144 0;
#X obj 834 20 vradio 15 1 0 8 bass-radio-31-s bass-radio-31-r empty
0 -8 0 10 -166441 -1 -262144 0;
#X obj 850 20 vradio 15 1 0 8 bass-radio-32-s bass-radio-32-r empty
0 -8 0 10 -166441 -1 -262144 0;
#X obj 252 -73 tgl 8 0 empty empty BassBeatsAndMelody 17 7 0 30 -1
-1 -191407 0 1;
#X obj 52 5 tgl 8 0 empty empty Beats 15 5 0 20 -1 -1 -262144 0 1;
#X obj 356 -3 tgl 8 0 empty empty Bass 15 5 0 20 -1 -1 -262144 0 1
;
#X obj 251 57 hradio 15 1 0 4 time-sig-beat-s time-sig-beat-init empty
0 -8 0 10 -262144 -1 -1 0;
#X symbolatom 250 35 10 0 0 0 Time-sig time-sig-beat-r do_not_use;
#X symbolatom 483 -6 10 0 0 0 Time-sig time-sig-bass-r do_not_use;
#X obj 556 -6 hradio 15 1 0 4 time-sig-bass-s time-sig-bass-init empty
0 -8 0 10 -262144 -1 -1 2;
#X obj 340 187 cnv 15 320 180 empty empty empty 20 12 0 14 -99865 -66577
0;
#X obj 351 197 cnv 15 85 160 empty empty empty 20 12 0 14 -162280 -66577
0;
#X obj 363 222 vu 15 120 volume-left empty -1 -8 0 10 -1 -162280 1
0;
#X text 366 203 L;
#X obj 391 222 vu 15 120 volume-right empty -1 -8 0 10 -1 -162280 1
0;
#X text 394 203 R;
#X obj 415 222 vsl 10 120 0 1 0 0 master-volume-s master-volume-r empty
0 -9 0 10 -128992 -191407 -1 11900 1;
#X obj 447 197 cnv 15 60 160 empty empty empty 20 12 0 14 -162280 -66577
0;
#X obj 460 220 vu 15 120 beats-vu empty -1 -8 0 10 -1 -162280 1 0;
#X obj 484 220 vsl 10 120 0 1 0 0 beats-volume-s beats-volume-r empty
0 -9 0 10 -128992 -191407 -1 6500 1;
#X text 460 201 Beats;
#X obj 518 197 cnv 15 60 160 empty empty empty 20 12 0 14 -162280 -66577
0;
#X obj 531 220 vu 15 120 bass-vu empty -1 -8 0 10 -1 -162280 1 0;
#X obj 555 220 vsl 10 120 0 1 0 0 bass-volume-s bass-volume-r empty
0 -9 0 10 -128992 -191407 -1 0 1;
#X text 531 201 Bass;
#X obj 589 197 cnv 15 60 160 empty empty empty 20 12 0 14 -162280 -66577
0;
#X obj 602 220 vu 15 120 bass-vu empty -1 -8 0 10 -1 -162280 1 0;
#X obj 626 220 vsl 10 120 0 1 0 0 bass-volume-s bass-volume-r empty
0 -9 0 10 -128992 -191407 -1 0 1;
#X text 599 201 Chords;
#X obj 619 -62 bng 15 250 50 0 save-current-melody empty Save 17 7
0 10 -162280 -1 -262144;
#X obj 669 -62 bng 15 250 50 0 Load-current-melody empty Load 17 7
0 10 -162280 -1 -262144;
#X symbolatom 619 -85 15 0 0 0 - load_save_status -;
#X obj 879 27 knob 32 32 0 50 0 0 pick-location-knob empty Pick 0 -8
0 8 -262144 -1 -262144 3100 1;
#X obj 928 26 knob 32 32 0.5 0.989 0 0 leadmuting empty Mute 0 -8 0
8 -262144 -1 -262144 3100 1;
