#N canvas 1766 187 1086 505 10;
#X obj 9 116 Arrow1;
#X obj 95 16 r TowerPos;
#X obj 10 31 r TowerBang;
#X obj 295 106 Deathrattle;
#X obj 275 41 r DeathBang;
#X obj 370 16 r DeathPos;
#X obj 449 44 r BoomBang;
#X obj 544 19 r BoomPos;
#X obj 604 126 cubeclick;
#X obj 688 31 r CubePos;
#X obj 587 62 r CubeBang;
#X obj 779 131 CubeStrum;
#X obj 813 82 r StrumBang;
#X obj 455 125 boomshot_ead;
#X obj 358 317 outlet~;
#X obj 450 332 outlet~;
#X obj 142 116 ArrowBomb;
#X obj 102 55 r bombTowerBang;
#X obj 183 25 r bombTowerPos;
#X connect 0 0 14 0;
#X connect 0 1 15 0;
#X connect 1 0 0 1;
#X connect 2 0 0 0;
#X connect 3 0 14 0;
#X connect 3 1 15 0;
#X connect 4 0 3 0;
#X connect 5 0 3 1;
#X connect 6 0 13 0;
#X connect 7 0 13 1;
#X connect 8 0 14 0;
#X connect 8 1 15 0;
#X connect 9 0 8 1;
#X connect 10 0 8 0;
#X connect 11 0 14 0;
#X connect 11 1 15 0;
#X connect 12 0 11 0;
#X connect 13 0 14 0;
#X connect 13 1 15 0;
#X connect 16 0 14 0;
#X connect 16 1 15 0;
#X connect 17 0 16 0;
#X connect 18 0 16 1;
