#N canvas 653 422 747 396 10;
#X obj 191 234 vline~;
#X text 106 32 attack (ms);
#X text 206 32 decay (ms);
#X text 36 32 trigger;
#X obj 37 55 inlet;
#X obj 108 55 inlet;
#X obj 208 55 inlet;
#X obj 90 367 outlet~;
#X text 80 211 attack;
#X text 239 233 decay;
#X obj 37 115 f 3;
#X obj 531 202 expr pow($f1 \, 6);
#X obj 531 173 / 1000;
#X obj 487 130 f;
#X obj 514 132 + 1;
#X obj 487 108 until;
#X msg 525 108 0;
#X obj 487 78 t f b;
#X obj 487 156 t f f;
#X obj 621 159 table \$0-ead 1000;
#X obj 487 271 s \$0-ead;
#X obj 487 233 pack 0 0;
#X msg 487 46 1000;
#X obj 37 212 vline~;
#X msg 37 181 1000 \, 0 \$1 0 \, 1000 0 \$1;
#X msg 191 181 0 \, 1000 0 \$1 \, 0 \$2 \$1;
#X obj 36 296 +~ 1;
#X obj 37 135 pack 50 100;
#X obj 208 75 max 10;
#X obj 108 75 max 1;
#X obj 192 260 tabread4~ \$0-ead;
#X obj 36 242 tabread4~ \$0-ead;
#X obj 396 155 +;
#X msg 366 231 0 5;
#X obj 365 265 vline~;
#X obj 90 335 *~;
#X msg 397 230 1 1;
#X obj 37 75 t b b;
#X obj 380 197 delay 100;
#X obj 338 181 t b;
#X obj 384 92 t b f;
#X obj 488 14 loadbang;
#X connect 0 0 30 0;
#X connect 4 0 37 0;
#X connect 5 0 29 0;
#X connect 6 0 28 0;
#X connect 10 0 27 0;
#X connect 11 0 21 1;
#X connect 12 0 11 0;
#X connect 13 0 14 0;
#X connect 13 0 18 0;
#X connect 14 0 13 1;
#X connect 15 0 13 0;
#X connect 16 0 13 1;
#X connect 17 0 15 0;
#X connect 17 1 16 0;
#X connect 18 0 21 0;
#X connect 18 1 12 0;
#X connect 21 0 20 0;
#X connect 22 0 17 0;
#X connect 23 0 31 0;
#X connect 24 0 23 0;
#X connect 25 0 0 0;
#X connect 26 0 35 0;
#X connect 27 0 25 0;
#X connect 27 0 24 0;
#X connect 28 0 27 1;
#X connect 28 0 40 0;
#X connect 29 0 10 1;
#X connect 29 0 32 0;
#X connect 30 0 35 0;
#X connect 31 0 26 0;
#X connect 32 0 38 1;
#X connect 33 0 34 0;
#X connect 34 0 35 1;
#X connect 35 0 7 0;
#X connect 36 0 34 0;
#X connect 37 0 10 0;
#X connect 37 1 39 0;
#X connect 38 0 33 0;
#X connect 39 0 38 0;
#X connect 39 0 36 0;
#X connect 40 0 32 0;
#X connect 40 1 32 1;
#X connect 41 0 22 0;
